G04 Generated by Ultiboard 13.0 *
%FSLAX25Y25*%
%MOIN*%

%ADD10C,0.00001*%
%ADD11C,0.06734*%
%ADD12R,0.02083X0.02083*%
%ADD13C,0.04317*%
%ADD14C,0.06400*%
%ADD15R,0.02334X0.02334*%
%ADD16C,0.04400*%
%ADD17R,0.05906X0.03937*%
%ADD18C,0.00400*%
%ADD19R,0.02666X0.03666*%
%ADD20C,0.02734*%
%ADD21R,0.13332X0.04749*%
%ADD22R,0.03150X0.03150*%
%ADD23C,0.16900*%
%ADD24R,0.03700X0.04500*%
%ADD25R,0.06500X0.03200*%
%ADD26R,0.03937X0.03937*%
%ADD27R,0.04668X0.02251*%
%ADD28C,0.02066*%
%ADD29R,0.04168X0.01501*%


G04 ColorRGB FF00CC for the following layer *
%LNSolder Mask Top*%
%LPD*%
G54D10*
G54D11*
X90000Y125000D03*
X90000Y95000D03*
X90000Y85000D03*
X90000Y75000D03*
X90000Y115000D03*
X90000Y105000D03*
X55000Y72250D03*
X45000Y72250D03*
X65000Y72250D03*
X65000Y82250D03*
X55000Y82250D03*
X45000Y82250D03*
X10000Y65000D03*
X10000Y95000D03*
X10000Y105000D03*
X10000Y115000D03*
X10000Y75000D03*
X10000Y85000D03*
X65000Y8750D03*
X55000Y8750D03*
X35000Y8750D03*
X45000Y8750D03*
X25000Y8750D03*
G54D12*
X90000Y65000D03*
X10000Y125000D03*
X75000Y8750D03*
G54D13*
X88959Y63959D02*
X91041Y63959D01*
X91041Y66041D01*
X88959Y66041D01*
X88959Y63959D01*D02*
X8959Y123959D02*
X11041Y123959D01*
X11041Y126041D01*
X8959Y126041D01*
X8959Y123959D01*D02*
X73959Y7709D02*
X76041Y7709D01*
X76041Y9791D01*
X73959Y9791D01*
X73959Y7709D01*D02*
G54D14*
X35000Y72250D03*
G54D15*
X35000Y82250D03*
G54D16*
X33833Y81083D02*
X36167Y81083D01*
X36167Y83417D01*
X33833Y83417D01*
X33833Y81083D01*D02*
G54D17*
X26000Y103821D03*
X26000Y111695D03*
X26000Y119569D03*
X26000Y95947D03*
X26000Y88073D03*
X26000Y80199D03*
X26000Y72325D03*
X74031Y119569D03*
X74031Y111695D03*
X74031Y88073D03*
X74031Y95947D03*
X74031Y80199D03*
X74031Y72325D03*
X74031Y103821D03*
G54D18*
X23047Y101853D02*
X28953Y101853D01*
X28953Y105789D01*
X23047Y105789D01*
X23047Y101853D01*D02*
X23047Y109727D02*
X28953Y109727D01*
X28953Y113663D01*
X23047Y113663D01*
X23047Y109727D01*D02*
X23047Y117601D02*
X28953Y117601D01*
X28953Y121537D01*
X23047Y121537D01*
X23047Y117601D01*D02*
X23047Y93979D02*
X28953Y93979D01*
X28953Y97915D01*
X23047Y97915D01*
X23047Y93979D01*D02*
X23047Y86105D02*
X28953Y86105D01*
X28953Y90041D01*
X23047Y90041D01*
X23047Y86105D01*D02*
X23047Y78231D02*
X28953Y78231D01*
X28953Y82167D01*
X23047Y82167D01*
X23047Y78231D01*D02*
X23047Y70357D02*
X28953Y70357D01*
X28953Y74293D01*
X23047Y74293D01*
X23047Y70357D01*D02*
X71078Y117601D02*
X76984Y117601D01*
X76984Y121537D01*
X71078Y121537D01*
X71078Y117601D01*D02*
X71078Y109727D02*
X76984Y109727D01*
X76984Y113663D01*
X71078Y113663D01*
X71078Y109727D01*D02*
X71078Y86105D02*
X76984Y86105D01*
X76984Y90041D01*
X71078Y90041D01*
X71078Y86105D01*D02*
X71078Y93979D02*
X76984Y93979D01*
X76984Y97915D01*
X71078Y97915D01*
X71078Y93979D01*D02*
X71078Y78231D02*
X76984Y78231D01*
X76984Y82167D01*
X71078Y82167D01*
X71078Y78231D01*D02*
X71078Y70357D02*
X76984Y70357D01*
X76984Y74293D01*
X71078Y74293D01*
X71078Y70357D01*D02*
X71078Y101853D02*
X76984Y101853D01*
X76984Y105789D01*
X71078Y105789D01*
X71078Y101853D01*D02*
X18425Y50525D02*
X21575Y50525D01*
X21575Y53675D01*
X18425Y53675D01*
X18425Y50525D01*D02*
X18425Y56425D02*
X21575Y56425D01*
X21575Y59575D01*
X18425Y59575D01*
X18425Y56425D01*D02*
X85400Y48700D02*
X89100Y48700D01*
X89100Y53200D01*
X85400Y53200D01*
X85400Y48700D01*D02*
X94100Y48700D02*
X97800Y48700D01*
X97800Y53200D01*
X94100Y53200D01*
X94100Y48700D01*D02*
X94100Y20000D02*
X97800Y20000D01*
X97800Y24500D01*
X94100Y24500D01*
X94100Y20000D01*D02*
X85400Y20000D02*
X89100Y20000D01*
X89100Y24500D01*
X85400Y24500D01*
X85400Y20000D01*D02*
X81000Y26150D02*
X87500Y26150D01*
X87500Y29350D01*
X81000Y29350D01*
X81000Y26150D01*D02*
X81000Y37550D02*
X87500Y37550D01*
X87500Y40750D01*
X81000Y40750D01*
X81000Y37550D01*D02*
X81000Y43450D02*
X87500Y43450D01*
X87500Y46650D01*
X81000Y46650D01*
X81000Y43450D01*D02*
X5233Y27390D02*
X9169Y27390D01*
X9169Y31326D01*
X5233Y31326D01*
X5233Y27390D01*D02*
X11532Y27390D02*
X15468Y27390D01*
X15468Y31326D01*
X11532Y31326D01*
X11532Y27390D01*D02*
X11532Y43532D02*
X15468Y43532D01*
X15468Y47468D01*
X11532Y47468D01*
X11532Y43532D01*D02*
X5233Y43532D02*
X9169Y43532D01*
X9169Y47468D01*
X5233Y47468D01*
X5233Y43532D01*D02*
X23032Y27532D02*
X26968Y27532D01*
X26968Y31468D01*
X23032Y31468D01*
X23032Y27532D01*D02*
X29331Y27532D02*
X33267Y27532D01*
X33267Y31468D01*
X29331Y31468D01*
X29331Y27532D01*D02*
X29331Y43674D02*
X33267Y43674D01*
X33267Y47610D01*
X29331Y47610D01*
X29331Y43674D01*D02*
X23032Y43674D02*
X26968Y43674D01*
X26968Y47610D01*
X23032Y47610D01*
X23032Y43674D01*D02*
G54D19*
X48833Y35000D03*
X67167Y35000D03*
X58000Y35000D03*
G54D20*
X47500Y33167D02*
X50166Y33167D01*
X50166Y36833D01*
X47500Y36833D01*
X47500Y33167D01*D02*
X51334Y57626D02*
X64666Y57626D01*
X64666Y62374D01*
X51334Y62374D01*
X51334Y57626D01*D02*
X65834Y33167D02*
X68500Y33167D01*
X68500Y36833D01*
X65834Y36833D01*
X65834Y33167D01*D02*
X56667Y33167D02*
X59333Y33167D01*
X59333Y36833D01*
X56667Y36833D01*
X56667Y33167D01*D02*
G54D21*
X58000Y60000D03*
G54D22*
X20000Y52100D03*
X20000Y58000D03*
G54D23*
X10000Y10000D03*
X90000Y10000D03*
X90000Y150000D03*
X10000Y150000D03*
G54D24*
X87250Y50950D03*
X95950Y50950D03*
X95950Y22250D03*
X87250Y22250D03*
G54D25*
X84250Y27750D03*
X84250Y39150D03*
X84250Y45050D03*
G54D26*
X7201Y29358D03*
X13500Y29358D03*
X13500Y45500D03*
X7201Y45500D03*
X25000Y29500D03*
X31299Y29500D03*
X31299Y45642D03*
X25000Y45642D03*
G54D27*
X46750Y27417D03*
X46750Y20083D03*
X69250Y27417D03*
X69250Y20083D03*
G54D28*
X44416Y26292D02*
X49084Y26292D01*
X49084Y28542D01*
X44416Y28542D01*
X44416Y26292D01*D02*
X44416Y18958D02*
X49084Y18958D01*
X49084Y21208D01*
X44416Y21208D01*
X44416Y18958D01*D02*
X55916Y26000D02*
X60084Y26000D01*
X60084Y27500D01*
X55916Y27500D01*
X55916Y26000D01*D02*
X55916Y20000D02*
X60084Y20000D01*
X60084Y21500D01*
X55916Y21500D01*
X55916Y20000D01*D02*
X66916Y26292D02*
X71584Y26292D01*
X71584Y28542D01*
X66916Y28542D01*
X66916Y26292D01*D02*
X66916Y18958D02*
X71584Y18958D01*
X71584Y21208D01*
X66916Y21208D01*
X66916Y18958D01*D02*
G54D29*
X58000Y26750D03*
X58000Y20750D03*

M02*
