G04 Generated by Ultiboard 13.0 *
%FSLAX25Y25*%
%MOIN*%

%ADD10C,0.00001*%
%ADD11R,0.01084X0.04168*%
%ADD12C,0.01666*%


G04 ColorRGB 009966 for the following layer *
%LNPaste Mask Bottom*%
%LPD*%
G54D10*
G54D11*
X24750Y85000D03*
X18750Y85000D03*
X18750Y62500D03*
X24750Y62500D03*
X18750Y75000D03*
X24750Y75000D03*
X81750Y105000D03*
X75750Y105000D03*
X81750Y115000D03*
X75750Y115000D03*
G54D12*
X24208Y82916D02*
X25292Y82916D01*
X25292Y87084D01*
X24208Y87084D01*
X24208Y82916D01*D02*
X18208Y82916D02*
X19292Y82916D01*
X19292Y87084D01*
X18208Y87084D01*
X18208Y82916D01*D02*
X18208Y60416D02*
X19292Y60416D01*
X19292Y64584D01*
X18208Y64584D01*
X18208Y60416D01*D02*
X24208Y60416D02*
X25292Y60416D01*
X25292Y64584D01*
X24208Y64584D01*
X24208Y60416D01*D02*
X18208Y72916D02*
X19292Y72916D01*
X19292Y77084D01*
X18208Y77084D01*
X18208Y72916D01*D02*
X24208Y72916D02*
X25292Y72916D01*
X25292Y77084D01*
X24208Y77084D01*
X24208Y72916D01*D02*
X81208Y102916D02*
X82292Y102916D01*
X82292Y107084D01*
X81208Y107084D01*
X81208Y102916D01*D02*
X75208Y102916D02*
X76292Y102916D01*
X76292Y107084D01*
X75208Y107084D01*
X75208Y102916D01*D02*
X81208Y112916D02*
X82292Y112916D01*
X82292Y117084D01*
X81208Y117084D01*
X81208Y112916D01*D02*
X75208Y112916D02*
X76292Y112916D01*
X76292Y117084D01*
X75208Y117084D01*
X75208Y112916D01*D02*

M02*
