G04 Generated by Ultiboard 13.0 *
%FSLAX25Y25*%
%MOIN*%

%ADD10C,0.00001*%
%ADD11C,0.01000*%
%ADD12C,0.02000*%
%ADD13C,0.02500*%
%ADD14C,0.02000*%
%ADD15C,0.06334*%
%ADD16R,0.02083X0.02083*%
%ADD17C,0.03917*%
%ADD18C,0.06000*%
%ADD19R,0.06334X0.06334*%
%ADD20R,0.01084X0.04168*%
%ADD21C,0.01666*%
%ADD22C,0.03000*%
%ADD23C,0.16500*%
%ADD24C,0.02500*%


G04 ColorRGB 0000FF for the following layer *
%LNCopper Bottom*%
%LPD*%
G54D10*
G36*
X97990Y15587D02*
X97990Y15587D01*
X97990Y125993D01*
X94560Y125993D01*
G75*
D01*
G02X85440Y125993I-4560J-989*
G01*
X85440Y125993D01*
X71086Y125993D01*
X69431Y121027D01*
G74*
D01*
G02X68549Y120096I1431J472*
G01*
G75*
D01*
G02X67998Y119993I-548J1404*
G01*
X67998Y119993D01*
X32000Y119993D01*
G75*
D01*
G02X30553Y121078I0J1507*
G01*
X30553Y121078D01*
X29120Y125993D01*
X14517Y125993D01*
X14517Y123959D01*
G75*
D01*
G02X11042Y120483I-3475J-1*
G01*
X11042Y120483D01*
X8959Y120483D01*
G75*
D01*
G02X5483Y123959I0J3476*
G01*
X5483Y123959D01*
X5483Y125993D01*
X2010Y125993D01*
X2010Y15587D01*
G75*
D01*
G02X15587Y2010I7988J-5589*
G01*
X15587Y2010D01*
X84413Y2010D01*
G75*
D01*
G02X97990Y15587I5589J7988*
G01*
D02*
G37*
%LPC*%
G36*
X87818Y100875D02*
G74*
D01*
G02X87586Y100994I799J1843*
G01*
X87586Y100994D01*
X84632Y102775D01*
G74*
D01*
G02X82292Y100572I2340J141*
G01*
X82292Y100572D01*
X81208Y100572D01*
G75*
D01*
G02X78864Y102916I0J2344*
G01*
X78864Y102916D01*
X78864Y107084D01*
G75*
D01*
G02X81208Y109428I2344J0*
G01*
X81208Y109428D01*
X82292Y109428D01*
G74*
D01*
G02X84632Y107225I0J2344*
G01*
X84632Y107225D01*
X87586Y109006D01*
G74*
D01*
G02X87746Y109092I1031J1726*
G01*
G74*
D01*
G02X87818Y109125I873J1809*
G01*
G75*
D01*
G02X87818Y100875I2181J-4125*
G01*
D02*
G37*
G36*
X86073Y92479D02*
G75*
D01*
G02X86073Y92479I3927J2521*
G01*
D02*
G37*
G36*
X87889Y70838D02*
G74*
D01*
G02X87567Y71003I981J2311*
G01*
X87567Y71003D01*
X85123Y72491D01*
G74*
D01*
G02X83474Y73224I128J2509*
G01*
X83474Y73224D01*
X80474Y76224D01*
G75*
D01*
G02X79738Y78004I1775J1776*
G01*
X79738Y78004D01*
X79738Y89459D01*
X73974Y95224D01*
G75*
D01*
G02X73238Y97005I1775J1776*
G01*
X73238Y97005D01*
X73238Y101645D01*
G75*
D01*
G02X72864Y102916I1970J1270*
G01*
X72864Y102916D01*
X72864Y107084D01*
G74*
D01*
G02X73238Y108355I2344J1*
G01*
X73238Y108355D01*
X73238Y111645D01*
G74*
D01*
G02X72903Y112488I1970J1271*
G01*
X72903Y112488D01*
X31000Y112488D01*
G75*
D01*
G02X31000Y117512I0J2512*
G01*
X31000Y117512D01*
X72903Y117512D01*
G75*
D01*
G02X75208Y119428I2305J-428*
G01*
X75208Y119428D01*
X76292Y119428D01*
G74*
D01*
G02X78636Y117084I0J2344*
G01*
X78636Y117084D01*
X78636Y112916D01*
G75*
D01*
G02X78262Y111645I-2344J-1*
G01*
X78262Y111645D01*
X78262Y108355D01*
G74*
D01*
G02X78636Y107084I1970J1270*
G01*
X78636Y107084D01*
X78636Y102916D01*
G75*
D01*
G02X78262Y101645I-2344J-1*
G01*
X78262Y101645D01*
X78262Y98041D01*
X84024Y92279D01*
G74*
D01*
G02X84762Y90500I1774J1779*
G01*
X84762Y90500D01*
X84762Y79041D01*
X85851Y77952D01*
X87567Y78997D01*
G74*
D01*
G02X87889Y79162I1304J2147*
G01*
G75*
D01*
G02X87889Y70838I2109J-4162*
G01*
D02*
G37*
G36*
X92479Y81046D02*
G75*
D01*
G02X92479Y81046I-2479J3954*
G01*
D02*
G37*
G36*
X87818Y110875D02*
G74*
D01*
G02X87586Y110994I799J1843*
G01*
X87586Y110994D01*
X84632Y112775D01*
G74*
D01*
G02X82292Y110572I2340J141*
G01*
X82292Y110572D01*
X81208Y110572D01*
G75*
D01*
G02X78864Y112916I0J2344*
G01*
X78864Y112916D01*
X78864Y117084D01*
G75*
D01*
G02X81208Y119428I2344J0*
G01*
X81208Y119428D01*
X82292Y119428D01*
G74*
D01*
G02X84632Y117225I0J2344*
G01*
X84632Y117225D01*
X87586Y119006D01*
G74*
D01*
G02X87746Y119092I1031J1726*
G01*
G74*
D01*
G02X87818Y119125I873J1809*
G01*
G75*
D01*
G02X87818Y110875I2181J-4125*
G01*
D02*
G37*
G36*
X91566Y60625D02*
X91566Y60625D01*
X91566Y63434D01*
X94375Y63434D01*
G74*
D01*
G02X91566Y60625I3333J524*
G01*
D02*
G37*
G36*
X92479Y39133D02*
G75*
D01*
G02X92479Y39133I-1229J3117*
G01*
D02*
G37*
G36*
X89763Y27248D02*
X89763Y27248D01*
X89763Y26250D01*
G75*
D01*
G02X88951Y24293I-2763J-1*
G01*
X88951Y24293D01*
X77707Y13049D01*
G74*
D01*
G02X77479Y12845I1954J1954*
G01*
G74*
D01*
G02X79375Y10316I1437J3053*
G01*
X79375Y10316D01*
X76566Y10316D01*
X76566Y12360D01*
G74*
D01*
G02X75750Y12237I815J2640*
G01*
X75750Y12237D01*
X73434Y12237D01*
X73434Y10316D01*
X70625Y10316D01*
G74*
D01*
G02X71633Y12237I3333J524*
G01*
X71633Y12237D01*
X68102Y12237D01*
G75*
D01*
G02X60382Y9423I-3102J-3487*
G01*
X60382Y9423D01*
X59301Y6905D01*
G74*
D01*
G02X59105Y6529I2540J1085*
G01*
G75*
D01*
G02X52779Y12855I-4104J2222*
G01*
G74*
D01*
G02X53158Y13053I1465J2343*
G01*
X53158Y13053D01*
X57076Y14733D01*
X59296Y16954D01*
G75*
D01*
G02X61254Y17763I1953J-1954*
G01*
X61254Y17763D01*
X74605Y17763D01*
X76564Y19722D01*
X76564Y21186D01*
X78028Y21186D01*
X84237Y27395D01*
X84237Y35000D01*
G75*
D01*
G02X89763Y35000I2763J0*
G01*
X89763Y35000D01*
X89763Y33252D01*
G75*
D01*
G02X89763Y27248I1487J-3002*
G01*
D02*
G37*
G36*
X91566Y69375D02*
G74*
D01*
G02X94375Y66566I523J3332*
G01*
X94375Y66566D01*
X91566Y66566D01*
X91566Y69375D01*
D02*
G37*
G36*
X13927Y92479D02*
G75*
D01*
G02X13927Y92479I-3927J2521*
G01*
D02*
G37*
G36*
X5333Y105000D02*
G75*
D01*
G02X5333Y105000I4667J0*
G01*
D02*
G37*
G36*
X5333Y115000D02*
G75*
D01*
G02X5333Y115000I4667J0*
G01*
D02*
G37*
G36*
X27505Y82545D02*
X27505Y82545D01*
X25925Y85000D01*
X27505Y87455D01*
G74*
D01*
G02X27536Y87084I2212J372*
G01*
X27536Y87084D01*
X27536Y82916D01*
G75*
D01*
G02X27505Y82545I-2244J1*
G01*
D02*
G37*
G36*
X26229Y89123D02*
X26229Y89123D01*
X24750Y86825D01*
X23271Y89123D01*
G75*
D01*
G02X24208Y89328I937J-2038*
G01*
X24208Y89328D01*
X25292Y89328D01*
G74*
D01*
G02X26229Y89123I0J2244*
G01*
D02*
G37*
G36*
X21995Y87455D02*
X21995Y87455D01*
X23575Y85000D01*
X21995Y82545D01*
G75*
D01*
G02X21964Y82916I2212J372*
G01*
X21964Y82916D01*
X21964Y87084D01*
G74*
D01*
G02X21995Y87455I2244J1*
G01*
D02*
G37*
G36*
X26229Y80877D02*
G74*
D01*
G02X25292Y80672I937J2038*
G01*
X25292Y80672D01*
X24208Y80672D01*
G75*
D01*
G02X23271Y80877I0J2244*
G01*
X23271Y80877D01*
X24750Y83175D01*
X26229Y80877D01*
D02*
G37*
G36*
X12182Y89125D02*
G74*
D01*
G02X12417Y89004I800J1843*
G01*
X12417Y89004D01*
X15726Y87010D01*
X15864Y87010D01*
X15864Y87084D01*
G75*
D01*
G02X18208Y89428I2344J0*
G01*
X18208Y89428D01*
X19292Y89428D01*
G74*
D01*
G02X21636Y87084I0J2344*
G01*
X21636Y87084D01*
X21636Y82916D01*
G75*
D01*
G02X19292Y80572I-2344J0*
G01*
X19292Y80572D01*
X18208Y80572D01*
G75*
D01*
G02X15864Y82916I0J2344*
G01*
X15864Y82916D01*
X15864Y82990D01*
X15726Y82990D01*
X12415Y80995D01*
G74*
D01*
G02X12292Y80927I1033J1723*
G01*
G74*
D01*
G02X12182Y80875I913J1789*
G01*
G75*
D01*
G02X12182Y89125I-2181J4125*
G01*
D02*
G37*
G36*
X73042Y8750D02*
G75*
D01*
G02X73042Y8750I1958J0*
G01*
D02*
G37*
G36*
X12182Y70875D02*
G75*
D01*
G02X12182Y79125I-2181J4125*
G01*
G74*
D01*
G02X12417Y79004I800J1843*
G01*
X12417Y79004D01*
X15726Y77010D01*
X15864Y77010D01*
X15864Y77084D01*
G75*
D01*
G02X18208Y79428I2344J0*
G01*
X18208Y79428D01*
X19292Y79428D01*
G74*
D01*
G02X21636Y77084I0J2344*
G01*
X21636Y77084D01*
X21636Y72916D01*
G75*
D01*
G02X19292Y70572I-2344J0*
G01*
X19292Y70572D01*
X18208Y70572D01*
G75*
D01*
G02X15864Y72916I0J2344*
G01*
X15864Y72916D01*
X15864Y72990D01*
X15726Y72990D01*
X12415Y70995D01*
G74*
D01*
G02X12292Y70927I1033J1723*
G01*
G74*
D01*
G02X12182Y70875I913J1789*
G01*
D02*
G37*
G36*
X88434Y69375D02*
X88434Y69375D01*
X88434Y66566D01*
X85625Y66566D01*
G74*
D01*
G02X88434Y69375I3333J524*
G01*
D02*
G37*
G36*
X88042Y65000D02*
G75*
D01*
G02X88042Y65000I1958J0*
G01*
D02*
G37*
G36*
X85625Y63434D02*
X85625Y63434D01*
X88434Y63434D01*
X88434Y60625D01*
G74*
D01*
G02X85625Y63434I525J3334*
G01*
D02*
G37*
G36*
X25887Y44838D02*
G74*
D01*
G02X27338Y43387I887J2338*
G01*
X27338Y43387D01*
X25887Y43387D01*
X25887Y44838D01*
D02*
G37*
G36*
X27338Y41613D02*
G74*
D01*
G02X25887Y40162I2338J887*
G01*
X25887Y40162D01*
X25887Y41613D01*
X27338Y41613D01*
D02*
G37*
G36*
X24350Y42500D02*
G75*
D01*
G02X24350Y42500I650J0*
G01*
D02*
G37*
G36*
X36114Y51512D02*
X36114Y51512D01*
X47000Y51512D01*
G75*
D01*
G02X47000Y46488I0J-2512*
G01*
X47000Y46488D01*
X33450Y46488D01*
G75*
D01*
G02X33267Y46495I4J2512*
G01*
G74*
D01*
G02X31674Y47224I183J2504*
G01*
X31674Y47224D01*
X28724Y50174D01*
G75*
D01*
G02X27988Y51956I1775J1776*
G01*
X27988Y51956D01*
X27988Y65280D01*
X22974Y70294D01*
G74*
D01*
G02X22288Y71571I1775J1776*
G01*
G75*
D01*
G02X21864Y72916I1920J1345*
G01*
X21864Y72916D01*
X21864Y77084D01*
G75*
D01*
G02X24208Y79428I2344J0*
G01*
X24208Y79428D01*
X25292Y79428D01*
G74*
D01*
G02X27636Y77084I0J2344*
G01*
X27636Y77084D01*
X27636Y72916D01*
G75*
D01*
G02X27630Y72743I-2344J-5*
G01*
X27630Y72743D01*
X32274Y68099D01*
G74*
D01*
G02X33012Y66320I1774J1779*
G01*
X33012Y66320D01*
X33012Y55266D01*
G74*
D01*
G02X33216Y55502I1990J1514*
G01*
G74*
D01*
G02X33549Y55797I1490J1347*
G01*
X33549Y55797D01*
X35820Y57412D01*
X46130Y67722D01*
G75*
D01*
G02X41272Y75057I-1132J4527*
G01*
X41272Y75057D01*
X40649Y75057D01*
X40337Y74745D01*
X39356Y71083D01*
G74*
D01*
G02X39332Y71002I1938J530*
G01*
G74*
D01*
G02X39271Y70832I1920J593*
G01*
G75*
D01*
G02X33582Y76521I-4271J1418*
G01*
G74*
D01*
G02X33836Y76607I770J1856*
G01*
X33836Y76607D01*
X37495Y77587D01*
X37584Y77676D01*
X36622Y77676D01*
X36622Y80628D01*
X39574Y80628D01*
X39574Y79083D01*
G75*
D01*
G02X39574Y79062I-1407J-10*
G01*
G75*
D01*
G02X39820Y79077I245J-1994*
G01*
X39820Y79077D01*
X41578Y79077D01*
G75*
D01*
G02X48422Y79077I3422J3172*
G01*
X48422Y79077D01*
X51578Y79077D01*
G75*
D01*
G02X58422Y79077I3422J3172*
G01*
X58422Y79077D01*
X61578Y79077D01*
G75*
D01*
G02X68378Y85470I3400J3196*
G01*
X68378Y85470D01*
X70287Y87379D01*
X71903Y89653D01*
G74*
D01*
G02X72197Y89982I1637J1167*
G01*
G75*
D01*
G02X75732Y86447I1767J-1768*
G01*
G74*
D01*
G02X75402Y86152I1496J1341*
G01*
X75402Y86152D01*
X73129Y84537D01*
X71577Y82985D01*
X71577Y78323D01*
G75*
D01*
G02X70986Y76900I-2010J1*
G01*
X70986Y76900D01*
X69734Y75648D01*
G74*
D01*
G02X68699Y75095I1423J1418*
G01*
G75*
D01*
G02X61272Y75057I-3699J-2844*
G01*
X61272Y75057D01*
X58728Y75057D01*
G75*
D01*
G02X55429Y67603I-3727J-2808*
G01*
G74*
D01*
G02X55170Y67576I337J1980*
G01*
X55170Y67576D01*
X51537Y67444D01*
X38662Y54570D01*
X37046Y52296D01*
G74*
D01*
G02X36752Y51967I1636J1166*
G01*
G74*
D01*
G02X36114Y51512I1752J1782*
G01*
D02*
G37*
G36*
X21525Y58655D02*
G74*
D01*
G02X21670Y59076I1960J440*
G01*
X21670Y59076D01*
X21972Y59713D01*
G75*
D01*
G02X21864Y60416I2235J703*
G01*
X21864Y60416D01*
X21864Y64584D01*
G75*
D01*
G02X24208Y66928I2344J0*
G01*
X24208Y66928D01*
X25292Y66928D01*
G74*
D01*
G02X27636Y64584I0J2344*
G01*
X27636Y64584D01*
X27636Y60416D01*
G75*
D01*
G02X26746Y58577I-2344J0*
G01*
G74*
D01*
G02X26430Y57710I1995J236*
G01*
G74*
D01*
G02X26338Y57302I1995J236*
G01*
G75*
D01*
G02X21525Y58655I-2407J676*
G01*
D02*
G37*
G36*
X12182Y60875D02*
G75*
D01*
G02X12182Y69125I-2181J4125*
G01*
G74*
D01*
G02X12417Y69004I800J1843*
G01*
X12417Y69004D01*
X15726Y67010D01*
X16249Y67010D01*
G75*
D01*
G02X16491Y66995I-3J-2010*
G01*
G74*
D01*
G02X17269Y66732I241J1995*
G01*
G75*
D01*
G02X18208Y66928I938J-2148*
G01*
X18208Y66928D01*
X19292Y66928D01*
G74*
D01*
G02X21636Y64584I0J2344*
G01*
X21636Y64584D01*
X21636Y60416D01*
G75*
D01*
G02X19292Y58072I-2344J0*
G01*
X19292Y58072D01*
X18208Y58072D01*
G75*
D01*
G02X15864Y60416I0J2344*
G01*
X15864Y60416D01*
X15864Y62544D01*
X15533Y62874D01*
X12415Y60995D01*
G74*
D01*
G02X12292Y60927I1033J1723*
G01*
G74*
D01*
G02X12182Y60875I913J1789*
G01*
D02*
G37*
G36*
X33250Y82250D02*
G75*
D01*
G02X33250Y82250I1750J0*
G01*
D02*
G37*
G36*
X30426Y79083D02*
X30426Y79083D01*
X30426Y80628D01*
X33378Y80628D01*
X33378Y77676D01*
X31833Y77676D01*
G75*
D01*
G02X30426Y79083I0J1407*
G01*
D02*
G37*
G36*
X30426Y85417D02*
G75*
D01*
G02X31833Y86824I1407J0*
G01*
X31833Y86824D01*
X33378Y86824D01*
X33378Y83872D01*
X30426Y83872D01*
X30426Y85417D01*
D02*
G37*
G36*
X39574Y85417D02*
X39574Y85417D01*
X39574Y83872D01*
X36622Y83872D01*
X36622Y86824D01*
X38167Y86824D01*
G74*
D01*
G02X39574Y85417I0J1407*
G01*
D02*
G37*
G36*
X22662Y43387D02*
G74*
D01*
G02X24113Y44838I2338J887*
G01*
X24113Y44838D01*
X24113Y43387D01*
X22662Y43387D01*
D02*
G37*
G36*
X24113Y40162D02*
G74*
D01*
G02X22662Y41613I887J2338*
G01*
X22662Y41613D01*
X24113Y41613D01*
X24113Y40162D01*
D02*
G37*
G36*
X7887Y44338D02*
G74*
D01*
G02X9338Y42887I887J2338*
G01*
X9338Y42887D01*
X7887Y42887D01*
X7887Y44338D01*
D02*
G37*
G36*
X9338Y41113D02*
G74*
D01*
G02X7887Y39662I2338J887*
G01*
X7887Y39662D01*
X7887Y41113D01*
X9338Y41113D01*
D02*
G37*
G36*
X4662Y42887D02*
G74*
D01*
G02X6113Y44338I2338J887*
G01*
X6113Y44338D01*
X6113Y42887D01*
X4662Y42887D01*
D02*
G37*
G36*
X6113Y39662D02*
G74*
D01*
G02X4662Y41113I887J2338*
G01*
X4662Y41113D01*
X6113Y41113D01*
X6113Y39662D01*
D02*
G37*
G36*
X6350Y42000D02*
G75*
D01*
G02X6350Y42000I650J0*
G01*
D02*
G37*
G36*
X41162Y35887D02*
G74*
D01*
G02X42613Y37338I2338J887*
G01*
X42613Y37338D01*
X42613Y35887D01*
X41162Y35887D01*
D02*
G37*
G36*
X44387Y37338D02*
G74*
D01*
G02X45838Y35887I887J2338*
G01*
X45838Y35887D01*
X44387Y35887D01*
X44387Y37338D01*
D02*
G37*
G36*
X45838Y34113D02*
G74*
D01*
G02X44387Y32662I2338J887*
G01*
X44387Y32662D01*
X44387Y34113D01*
X45838Y34113D01*
D02*
G37*
G36*
X42613Y32662D02*
G74*
D01*
G02X41162Y34113I887J2338*
G01*
X41162Y34113D01*
X42613Y34113D01*
X42613Y32662D01*
D02*
G37*
G36*
X42850Y35000D02*
G75*
D01*
G02X42850Y35000I650J0*
G01*
D02*
G37*
G36*
X60338Y20613D02*
G74*
D01*
G02X58887Y19162I2338J887*
G01*
X58887Y19162D01*
X58887Y20613D01*
X60338Y20613D01*
D02*
G37*
G36*
X57113Y19162D02*
G74*
D01*
G02X55662Y20613I887J2338*
G01*
X55662Y20613D01*
X57113Y20613D01*
X57113Y19162D01*
D02*
G37*
G36*
X57350Y21500D02*
G75*
D01*
G02X57350Y21500I650J0*
G01*
D02*
G37*
G36*
X55662Y22387D02*
G74*
D01*
G02X57113Y23838I2338J887*
G01*
X57113Y23838D01*
X57113Y22387D01*
X55662Y22387D01*
D02*
G37*
G36*
X58887Y23838D02*
G74*
D01*
G02X60338Y22387I887J2338*
G01*
X60338Y22387D01*
X58887Y22387D01*
X58887Y23838D01*
D02*
G37*
G36*
X49338Y20613D02*
G74*
D01*
G02X47887Y19162I2338J887*
G01*
X47887Y19162D01*
X47887Y20613D01*
X49338Y20613D01*
D02*
G37*
G36*
X47887Y23838D02*
G74*
D01*
G02X49338Y22387I887J2338*
G01*
X49338Y22387D01*
X47887Y22387D01*
X47887Y23838D01*
D02*
G37*
G36*
X46113Y19162D02*
G74*
D01*
G02X44662Y20613I887J2338*
G01*
X44662Y20613D01*
X46113Y20613D01*
X46113Y19162D01*
D02*
G37*
G36*
X44662Y22387D02*
G74*
D01*
G02X46113Y23838I2338J887*
G01*
X46113Y23838D01*
X46113Y22387D01*
X44662Y22387D01*
D02*
G37*
G36*
X46350Y21500D02*
G75*
D01*
G02X46350Y21500I650J0*
G01*
D02*
G37*
G36*
X40333Y8750D02*
G75*
D01*
G02X40333Y8750I4667J0*
G01*
D02*
G37*
G36*
X30333Y8750D02*
G75*
D01*
G02X30333Y8750I4667J0*
G01*
D02*
G37*
G36*
X20333Y8750D02*
G75*
D01*
G02X20333Y8750I4667J0*
G01*
D02*
G37*
G36*
X74436Y19445D02*
G74*
D01*
G02X72695Y21186I1064J2805*
G01*
X72695Y21186D01*
X74436Y21186D01*
X74436Y19445D01*
D02*
G37*
G36*
X72695Y23314D02*
G74*
D01*
G02X74436Y25055I2805J1064*
G01*
X74436Y25055D01*
X74436Y23314D01*
X72695Y23314D01*
D02*
G37*
G36*
X74350Y22250D02*
G75*
D01*
G02X74350Y22250I1150J0*
G01*
D02*
G37*
G36*
X76564Y25055D02*
G74*
D01*
G02X78305Y23314I1064J2805*
G01*
X78305Y23314D01*
X76564Y23314D01*
X76564Y25055D01*
D02*
G37*
G36*
X70625Y7184D02*
X70625Y7184D01*
X73434Y7184D01*
X73434Y4375D01*
G74*
D01*
G02X70625Y7184I525J3334*
G01*
D02*
G37*
G36*
X76566Y4375D02*
X76566Y4375D01*
X76566Y7184D01*
X79375Y7184D01*
G74*
D01*
G02X76566Y4375I3333J524*
G01*
D02*
G37*
%LPD*%
G36*
X51272Y75057D02*
G74*
D01*
G03X50917Y74510I3727J2807*
G01*
G74*
D01*
G03X50788Y74283I1678J1104*
G01*
X50788Y74283D01*
X49657Y71939D01*
G75*
D01*
G03X48728Y75057I-4657J310*
G01*
X48728Y75057D01*
X51272Y75057D01*
D02*
G37*
G36*
X97621Y3918D02*
G74*
D01*
G02X96082Y2379I3110J1571*
G01*
G74*
D01*
G03X97621Y3918I6082J7621*
G01*
D02*
G37*
G36*
X3918Y2379D02*
G74*
D01*
G02X2379Y3918I6082J7621*
G01*
G74*
D01*
G03X3918Y2379I3110J1571*
G01*
D02*
G37*
G54D11*
X97621Y3918D02*
G74*
D01*
G02X96082Y2379I3110J1571*
G01*
G74*
D01*
G03X97621Y3918I6082J7621*
G01*
X87818Y100875D02*
G74*
D01*
G02X87586Y100994I799J1843*
G01*
X84632Y102775D01*
G74*
D01*
G02X82292Y100572I2340J141*
G01*
X81208Y100572D01*
G75*
D01*
G02X78864Y102916I0J2344*
G01*
X78864Y107084D01*
G75*
D01*
G02X81208Y109428I2344J0*
G01*
X82292Y109428D01*
G74*
D01*
G02X84632Y107225I0J2344*
G01*
X87586Y109006D01*
G74*
D01*
G02X87746Y109092I1031J1726*
G01*
G74*
D01*
G02X87818Y109125I873J1809*
G01*
G75*
D01*
G02X87818Y100875I2181J-4125*
G01*
X86073Y92479D02*
G75*
D01*
G02X86073Y92479I3927J2521*
G01*
X87889Y70838D02*
G74*
D01*
G02X87567Y71003I981J2311*
G01*
X85123Y72491D01*
G74*
D01*
G02X83474Y73224I128J2509*
G01*
X80474Y76224D01*
G75*
D01*
G02X79738Y78004I1775J1776*
G01*
X79738Y89459D01*
X73974Y95224D01*
G75*
D01*
G02X73238Y97005I1775J1776*
G01*
X73238Y101645D01*
G75*
D01*
G02X72864Y102916I1970J1270*
G01*
X72864Y107084D01*
G74*
D01*
G02X73238Y108355I2344J1*
G01*
X73238Y111645D01*
G74*
D01*
G02X72903Y112488I1970J1271*
G01*
X31000Y112488D01*
G75*
D01*
G02X31000Y117512I0J2512*
G01*
X72903Y117512D01*
G75*
D01*
G02X75208Y119428I2305J-428*
G01*
X76292Y119428D01*
G74*
D01*
G02X78636Y117084I0J2344*
G01*
X78636Y112916D01*
G75*
D01*
G02X78262Y111645I-2344J-1*
G01*
X78262Y108355D01*
G74*
D01*
G02X78636Y107084I1970J1270*
G01*
X78636Y102916D01*
G75*
D01*
G02X78262Y101645I-2344J-1*
G01*
X78262Y98041D01*
X84024Y92279D01*
G74*
D01*
G02X84762Y90500I1774J1779*
G01*
X84762Y79041D01*
X85851Y77952D01*
X87567Y78997D01*
G74*
D01*
G02X87889Y79162I1304J2147*
G01*
G75*
D01*
G02X87889Y70838I2109J-4162*
G01*
X92479Y81046D02*
G75*
D01*
G02X92479Y81046I-2479J3954*
G01*
X87818Y110875D02*
G74*
D01*
G02X87586Y110994I799J1843*
G01*
X84632Y112775D01*
G74*
D01*
G02X82292Y110572I2340J141*
G01*
X81208Y110572D01*
G75*
D01*
G02X78864Y112916I0J2344*
G01*
X78864Y117084D01*
G75*
D01*
G02X81208Y119428I2344J0*
G01*
X82292Y119428D01*
G74*
D01*
G02X84632Y117225I0J2344*
G01*
X87586Y119006D01*
G74*
D01*
G02X87746Y119092I1031J1726*
G01*
G74*
D01*
G02X87818Y119125I873J1809*
G01*
G75*
D01*
G02X87818Y110875I2181J-4125*
G01*
X91566Y60625D02*
X91566Y63434D01*
X94375Y63434D01*
G74*
D01*
G02X91566Y60625I3333J524*
G01*
X92479Y39133D02*
G75*
D01*
G02X92479Y39133I-1229J3117*
G01*
X89763Y27248D02*
X89763Y26250D01*
G75*
D01*
G02X88951Y24293I-2763J-1*
G01*
X77707Y13049D01*
G74*
D01*
G02X77479Y12845I1954J1954*
G01*
G74*
D01*
G02X79375Y10316I1437J3053*
G01*
X76566Y10316D01*
X76566Y12360D01*
G74*
D01*
G02X75750Y12237I815J2640*
G01*
X73434Y12237D01*
X73434Y10316D01*
X70625Y10316D01*
G74*
D01*
G02X71633Y12237I3333J524*
G01*
X68102Y12237D01*
G75*
D01*
G02X60382Y9423I-3102J-3487*
G01*
X59301Y6905D01*
G74*
D01*
G02X59105Y6529I2540J1085*
G01*
G75*
D01*
G02X52779Y12855I-4104J2222*
G01*
G74*
D01*
G02X53158Y13053I1465J2343*
G01*
X57076Y14733D01*
X59296Y16954D01*
G75*
D01*
G02X61254Y17763I1953J-1954*
G01*
X74605Y17763D01*
X76564Y19722D01*
X76564Y21186D01*
X78028Y21186D01*
X84237Y27395D01*
X84237Y35000D01*
G75*
D01*
G02X89763Y35000I2763J0*
G01*
X89763Y33252D01*
G75*
D01*
G02X89763Y27248I1487J-3002*
G01*
X91566Y69375D02*
G74*
D01*
G02X94375Y66566I523J3332*
G01*
X91566Y66566D01*
X91566Y69375D01*
X13927Y92479D02*
G75*
D01*
G02X13927Y92479I-3927J2521*
G01*
X5333Y105000D02*
G75*
D01*
G02X5333Y105000I4667J0*
G01*
X5333Y115000D02*
G75*
D01*
G02X5333Y115000I4667J0*
G01*
X27505Y82545D02*
X25925Y85000D01*
X27505Y87455D01*
G74*
D01*
G02X27536Y87084I2212J372*
G01*
X27536Y82916D01*
G75*
D01*
G02X27505Y82545I-2244J1*
G01*
X26229Y89123D02*
X24750Y86825D01*
X23271Y89123D01*
G75*
D01*
G02X24208Y89328I937J-2038*
G01*
X25292Y89328D01*
G74*
D01*
G02X26229Y89123I0J2244*
G01*
X21995Y87455D02*
X23575Y85000D01*
X21995Y82545D01*
G75*
D01*
G02X21964Y82916I2212J372*
G01*
X21964Y87084D01*
G74*
D01*
G02X21995Y87455I2244J1*
G01*
X26229Y80877D02*
G74*
D01*
G02X25292Y80672I937J2038*
G01*
X24208Y80672D01*
G75*
D01*
G02X23271Y80877I0J2244*
G01*
X24750Y83175D01*
X26229Y80877D01*
X12182Y89125D02*
G74*
D01*
G02X12417Y89004I800J1843*
G01*
X15726Y87010D01*
X15864Y87010D01*
X15864Y87084D01*
G75*
D01*
G02X18208Y89428I2344J0*
G01*
X19292Y89428D01*
G74*
D01*
G02X21636Y87084I0J2344*
G01*
X21636Y82916D01*
G75*
D01*
G02X19292Y80572I-2344J0*
G01*
X18208Y80572D01*
G75*
D01*
G02X15864Y82916I0J2344*
G01*
X15864Y82990D01*
X15726Y82990D01*
X12415Y80995D01*
G74*
D01*
G02X12292Y80927I1033J1723*
G01*
G74*
D01*
G02X12182Y80875I913J1789*
G01*
G75*
D01*
G02X12182Y89125I-2181J4125*
G01*
X73042Y8750D02*
G75*
D01*
G02X73042Y8750I1958J0*
G01*
X12182Y70875D02*
G75*
D01*
G02X12182Y79125I-2181J4125*
G01*
G74*
D01*
G02X12417Y79004I800J1843*
G01*
X15726Y77010D01*
X15864Y77010D01*
X15864Y77084D01*
G75*
D01*
G02X18208Y79428I2344J0*
G01*
X19292Y79428D01*
G74*
D01*
G02X21636Y77084I0J2344*
G01*
X21636Y72916D01*
G75*
D01*
G02X19292Y70572I-2344J0*
G01*
X18208Y70572D01*
G75*
D01*
G02X15864Y72916I0J2344*
G01*
X15864Y72990D01*
X15726Y72990D01*
X12415Y70995D01*
G74*
D01*
G02X12292Y70927I1033J1723*
G01*
G74*
D01*
G02X12182Y70875I913J1789*
G01*
X88434Y69375D02*
X88434Y66566D01*
X85625Y66566D01*
G74*
D01*
G02X88434Y69375I3333J524*
G01*
X88042Y65000D02*
G75*
D01*
G02X88042Y65000I1958J0*
G01*
X85625Y63434D02*
X88434Y63434D01*
X88434Y60625D01*
G74*
D01*
G02X85625Y63434I525J3334*
G01*
X25887Y44838D02*
G74*
D01*
G02X27338Y43387I887J2338*
G01*
X25887Y43387D01*
X25887Y44838D01*
X27338Y41613D02*
G74*
D01*
G02X25887Y40162I2338J887*
G01*
X25887Y41613D01*
X27338Y41613D01*
X24350Y42500D02*
G75*
D01*
G02X24350Y42500I650J0*
G01*
X36114Y51512D02*
X47000Y51512D01*
G75*
D01*
G02X47000Y46488I0J-2512*
G01*
X33450Y46488D01*
G75*
D01*
G02X33267Y46495I4J2512*
G01*
G74*
D01*
G02X31674Y47224I183J2504*
G01*
X28724Y50174D01*
G75*
D01*
G02X27988Y51956I1775J1776*
G01*
X27988Y65280D01*
X22974Y70294D01*
G74*
D01*
G02X22288Y71571I1775J1776*
G01*
G75*
D01*
G02X21864Y72916I1920J1345*
G01*
X21864Y77084D01*
G75*
D01*
G02X24208Y79428I2344J0*
G01*
X25292Y79428D01*
G74*
D01*
G02X27636Y77084I0J2344*
G01*
X27636Y72916D01*
G75*
D01*
G02X27630Y72743I-2344J-5*
G01*
X32274Y68099D01*
G74*
D01*
G02X33012Y66320I1774J1779*
G01*
X33012Y55266D01*
G74*
D01*
G02X33216Y55502I1990J1514*
G01*
G74*
D01*
G02X33549Y55797I1490J1347*
G01*
X35820Y57412D01*
X46130Y67722D01*
G75*
D01*
G02X41272Y75057I-1132J4527*
G01*
X40649Y75057D01*
X40337Y74745D01*
X39356Y71083D01*
G74*
D01*
G02X39332Y71002I1938J530*
G01*
G74*
D01*
G02X39271Y70832I1920J593*
G01*
G75*
D01*
G02X33582Y76521I-4271J1418*
G01*
G74*
D01*
G02X33836Y76607I770J1856*
G01*
X37495Y77587D01*
X37584Y77676D01*
X36622Y77676D01*
X36622Y80628D01*
X39574Y80628D01*
X39574Y79083D01*
G75*
D01*
G02X39574Y79062I-1407J-10*
G01*
G75*
D01*
G02X39820Y79077I245J-1994*
G01*
X41578Y79077D01*
G75*
D01*
G02X48422Y79077I3422J3172*
G01*
X51578Y79077D01*
G75*
D01*
G02X58422Y79077I3422J3172*
G01*
X61578Y79077D01*
G75*
D01*
G02X68378Y85470I3400J3196*
G01*
X70287Y87379D01*
X71903Y89653D01*
G74*
D01*
G02X72197Y89982I1637J1167*
G01*
G75*
D01*
G02X75732Y86447I1767J-1768*
G01*
G74*
D01*
G02X75402Y86152I1496J1341*
G01*
X73129Y84537D01*
X71577Y82985D01*
X71577Y78323D01*
G75*
D01*
G02X70986Y76900I-2010J1*
G01*
X69734Y75648D01*
G74*
D01*
G02X68699Y75095I1423J1418*
G01*
G75*
D01*
G02X61272Y75057I-3699J-2844*
G01*
X58728Y75057D01*
G75*
D01*
G02X55429Y67603I-3727J-2808*
G01*
G74*
D01*
G02X55170Y67576I337J1980*
G01*
X51537Y67444D01*
X38662Y54570D01*
X37046Y52296D01*
G74*
D01*
G02X36752Y51967I1636J1166*
G01*
G74*
D01*
G02X36114Y51512I1752J1782*
G01*
X21525Y58655D02*
G74*
D01*
G02X21670Y59076I1960J440*
G01*
X21972Y59713D01*
G75*
D01*
G02X21864Y60416I2235J703*
G01*
X21864Y64584D01*
G75*
D01*
G02X24208Y66928I2344J0*
G01*
X25292Y66928D01*
G74*
D01*
G02X27636Y64584I0J2344*
G01*
X27636Y60416D01*
G75*
D01*
G02X26746Y58577I-2344J0*
G01*
G74*
D01*
G02X26430Y57710I1995J236*
G01*
G74*
D01*
G02X26338Y57302I1995J236*
G01*
G75*
D01*
G02X21525Y58655I-2407J676*
G01*
X12182Y60875D02*
G75*
D01*
G02X12182Y69125I-2181J4125*
G01*
G74*
D01*
G02X12417Y69004I800J1843*
G01*
X15726Y67010D01*
X16249Y67010D01*
G75*
D01*
G02X16491Y66995I-3J-2010*
G01*
G74*
D01*
G02X17269Y66732I241J1995*
G01*
G75*
D01*
G02X18208Y66928I938J-2148*
G01*
X19292Y66928D01*
G74*
D01*
G02X21636Y64584I0J2344*
G01*
X21636Y60416D01*
G75*
D01*
G02X19292Y58072I-2344J0*
G01*
X18208Y58072D01*
G75*
D01*
G02X15864Y60416I0J2344*
G01*
X15864Y62544D01*
X15533Y62874D01*
X12415Y60995D01*
G74*
D01*
G02X12292Y60927I1033J1723*
G01*
G74*
D01*
G02X12182Y60875I913J1789*
G01*
X33250Y82250D02*
G75*
D01*
G02X33250Y82250I1750J0*
G01*
X30426Y79083D02*
X30426Y80628D01*
X33378Y80628D01*
X33378Y77676D01*
X31833Y77676D01*
G75*
D01*
G02X30426Y79083I0J1407*
G01*
X30426Y85417D02*
G75*
D01*
G02X31833Y86824I1407J0*
G01*
X33378Y86824D01*
X33378Y83872D01*
X30426Y83872D01*
X30426Y85417D01*
X39574Y85417D02*
X39574Y83872D01*
X36622Y83872D01*
X36622Y86824D01*
X38167Y86824D01*
G74*
D01*
G02X39574Y85417I0J1407*
G01*
X22662Y43387D02*
G74*
D01*
G02X24113Y44838I2338J887*
G01*
X24113Y43387D01*
X22662Y43387D01*
X24113Y40162D02*
G74*
D01*
G02X22662Y41613I887J2338*
G01*
X24113Y41613D01*
X24113Y40162D01*
X7887Y44338D02*
G74*
D01*
G02X9338Y42887I887J2338*
G01*
X7887Y42887D01*
X7887Y44338D01*
X9338Y41113D02*
G74*
D01*
G02X7887Y39662I2338J887*
G01*
X7887Y41113D01*
X9338Y41113D01*
X4662Y42887D02*
G74*
D01*
G02X6113Y44338I2338J887*
G01*
X6113Y42887D01*
X4662Y42887D01*
X6113Y39662D02*
G74*
D01*
G02X4662Y41113I887J2338*
G01*
X6113Y41113D01*
X6113Y39662D01*
X6350Y42000D02*
G75*
D01*
G02X6350Y42000I650J0*
G01*
X41162Y35887D02*
G74*
D01*
G02X42613Y37338I2338J887*
G01*
X42613Y35887D01*
X41162Y35887D01*
X44387Y37338D02*
G74*
D01*
G02X45838Y35887I887J2338*
G01*
X44387Y35887D01*
X44387Y37338D01*
X45838Y34113D02*
G74*
D01*
G02X44387Y32662I2338J887*
G01*
X44387Y34113D01*
X45838Y34113D01*
X42613Y32662D02*
G74*
D01*
G02X41162Y34113I887J2338*
G01*
X42613Y34113D01*
X42613Y32662D01*
X42850Y35000D02*
G75*
D01*
G02X42850Y35000I650J0*
G01*
X60338Y20613D02*
G74*
D01*
G02X58887Y19162I2338J887*
G01*
X58887Y20613D01*
X60338Y20613D01*
X57113Y19162D02*
G74*
D01*
G02X55662Y20613I887J2338*
G01*
X57113Y20613D01*
X57113Y19162D01*
X57350Y21500D02*
G75*
D01*
G02X57350Y21500I650J0*
G01*
X55662Y22387D02*
G74*
D01*
G02X57113Y23838I2338J887*
G01*
X57113Y22387D01*
X55662Y22387D01*
X58887Y23838D02*
G74*
D01*
G02X60338Y22387I887J2338*
G01*
X58887Y22387D01*
X58887Y23838D01*
X49338Y20613D02*
G74*
D01*
G02X47887Y19162I2338J887*
G01*
X47887Y20613D01*
X49338Y20613D01*
X47887Y23838D02*
G74*
D01*
G02X49338Y22387I887J2338*
G01*
X47887Y22387D01*
X47887Y23838D01*
X46113Y19162D02*
G74*
D01*
G02X44662Y20613I887J2338*
G01*
X46113Y20613D01*
X46113Y19162D01*
X44662Y22387D02*
G74*
D01*
G02X46113Y23838I2338J887*
G01*
X46113Y22387D01*
X44662Y22387D01*
X46350Y21500D02*
G75*
D01*
G02X46350Y21500I650J0*
G01*
X40333Y8750D02*
G75*
D01*
G02X40333Y8750I4667J0*
G01*
X30333Y8750D02*
G75*
D01*
G02X30333Y8750I4667J0*
G01*
X20333Y8750D02*
G75*
D01*
G02X20333Y8750I4667J0*
G01*
X74436Y19445D02*
G74*
D01*
G02X72695Y21186I1064J2805*
G01*
X74436Y21186D01*
X74436Y19445D01*
X72695Y23314D02*
G74*
D01*
G02X74436Y25055I2805J1064*
G01*
X74436Y23314D01*
X72695Y23314D01*
X74350Y22250D02*
G75*
D01*
G02X74350Y22250I1150J0*
G01*
X76564Y25055D02*
G74*
D01*
G02X78305Y23314I1064J2805*
G01*
X76564Y23314D01*
X76564Y25055D01*
X70625Y7184D02*
X73434Y7184D01*
X73434Y4375D01*
G74*
D01*
G02X70625Y7184I525J3334*
G01*
X76566Y4375D02*
X76566Y7184D01*
X79375Y7184D01*
G74*
D01*
G02X76566Y4375I3333J524*
G01*
X97990Y15587D02*
X97990Y125993D01*
X94560Y125993D01*
G75*
D01*
G02X85440Y125993I-4560J-989*
G01*
X71086Y125993D01*
X69431Y121027D01*
G74*
D01*
G02X68549Y120096I1431J472*
G01*
G75*
D01*
G02X67998Y119993I-548J1404*
G01*
X32000Y119993D01*
G75*
D01*
G02X30553Y121078I0J1507*
G01*
X29120Y125993D01*
X14517Y125993D01*
X14517Y123959D01*
G75*
D01*
G02X11042Y120483I-3475J-1*
G01*
X8959Y120483D01*
G75*
D01*
G02X5483Y123959I0J3476*
G01*
X5483Y125993D01*
X2010Y125993D01*
X2010Y15587D01*
G75*
D01*
G02X15587Y2010I7988J-5589*
G01*
X84413Y2010D01*
G75*
D01*
G02X97990Y15587I5589J7988*
G01*
X51272Y75057D02*
G74*
D01*
G03X50917Y74510I3727J2807*
G01*
G74*
D01*
G03X50788Y74283I1678J1104*
G01*
X49657Y71939D01*
G75*
D01*
G03X48728Y75057I-4657J310*
G01*
X51272Y75057D01*
X3918Y2379D02*
G74*
D01*
G02X2379Y3918I6082J7621*
G01*
G74*
D01*
G03X3918Y2379I3110J1571*
G01*
X81625Y115000D02*
X90000Y115000D01*
X90000Y105000D02*
X81750Y105000D01*
X16250Y65000D02*
X10000Y65000D01*
X18750Y62500D02*
X16250Y65000D01*
X35000Y53750D02*
X53500Y72250D01*
X55000Y72250D01*
X69567Y78323D02*
X69567Y83817D01*
X73949Y88199D01*
X18750Y75000D02*
X10000Y75000D01*
X10000Y85000D02*
X18750Y85000D01*
X23938Y58000D02*
X24750Y58813D01*
X24750Y62625D01*
X68311Y77067D02*
X69567Y78323D01*
X39817Y77067D02*
X68311Y77067D01*
X35000Y72250D02*
X39817Y77067D01*
G36*
X15167Y85000D02*
X15167Y85000D01*
X11377Y82716D01*
X11377Y87284D01*
X15167Y85000D01*
D02*
G37*
X11377Y82716D01*
X11377Y87284D01*
X15167Y85000D01*
G36*
X15167Y75000D02*
X15167Y75000D01*
X11377Y72716D01*
X11377Y77284D01*
X15167Y75000D01*
D02*
G37*
X11377Y72716D01*
X11377Y77284D01*
X15167Y75000D01*
G36*
X15167Y65000D02*
X15167Y65000D01*
X11377Y62716D01*
X11377Y67284D01*
X15167Y65000D01*
D02*
G37*
X11377Y62716D01*
X11377Y67284D01*
X15167Y65000D01*
G36*
X24750Y60888D02*
X24750Y60888D01*
X24435Y57947D01*
X23485Y58214D01*
X24750Y60888D01*
D02*
G37*
X24435Y57947D01*
X23485Y58214D01*
X24750Y60888D01*
G36*
X38536Y75786D02*
X38536Y75786D01*
X37415Y71603D01*
X34353Y74665D01*
X38536Y75786D01*
D02*
G37*
X37415Y71603D01*
X34353Y74665D01*
X38536Y75786D01*
G36*
X50674Y69424D02*
X50674Y69424D01*
X52598Y73410D01*
X55097Y69585D01*
X50674Y69424D01*
D02*
G37*
X52598Y73410D01*
X55097Y69585D01*
X50674Y69424D01*
G36*
X84833Y105000D02*
X84833Y105000D01*
X88623Y107284D01*
X88623Y102716D01*
X84833Y105000D01*
D02*
G37*
X88623Y107284D01*
X88623Y102716D01*
X84833Y105000D01*
G36*
X84833Y115000D02*
X84833Y115000D01*
X88623Y117284D01*
X88623Y112716D01*
X84833Y115000D01*
D02*
G37*
X88623Y117284D01*
X88623Y112716D01*
X84833Y115000D01*
G36*
X37121Y55871D02*
X37121Y55871D01*
X35408Y53460D01*
X34710Y54158D01*
X37121Y55871D01*
D02*
G37*
X35408Y53460D01*
X34710Y54158D01*
X37121Y55871D01*
G36*
X71827Y86077D02*
X71827Y86077D01*
X73541Y88488D01*
X74238Y87791D01*
X71827Y86077D01*
D02*
G37*
X73541Y88488D01*
X74238Y87791D01*
X71827Y86077D01*
G54D12*
X75750Y97000D02*
X75750Y114750D01*
X24750Y72070D02*
X24750Y75000D01*
X30500Y57000D02*
X30500Y66320D01*
X24750Y72070D01*
X30500Y55000D02*
X30500Y57175D01*
X85250Y75000D02*
X90000Y75000D01*
X82250Y78000D02*
X82250Y90500D01*
X82250Y78000D02*
X85250Y75000D01*
X82250Y90500D02*
X75750Y97000D01*
X33450Y49000D02*
X30500Y51950D01*
X30500Y55000D01*
X47000Y49000D02*
X33450Y49000D01*
X31000Y115000D02*
X75750Y115000D01*
G36*
X85833Y75000D02*
X85833Y75000D01*
X88873Y76851D01*
X88873Y73149D01*
X85833Y75000D01*
D02*
G37*
X88873Y76851D01*
X88873Y73149D01*
X85833Y75000D01*
G54D13*
X55000Y8750D02*
X61250Y15000D01*
X75750Y15000D01*
X87000Y26250D02*
X87000Y35000D01*
X75750Y15000D02*
X87000Y26250D01*
G36*
X58654Y12404D02*
X58654Y12404D01*
X56762Y7994D01*
X54244Y10512D01*
X58654Y12404D01*
D02*
G37*
X56762Y7994D01*
X54244Y10512D01*
X58654Y12404D01*
G54D14*
X25000Y42500D03*
X7000Y42000D03*
X47000Y49000D03*
X43500Y35000D03*
X35000Y53750D03*
X73949Y88199D03*
X30500Y55000D03*
X23938Y58000D03*
X47000Y21500D03*
X58000Y21500D03*
X31000Y115000D03*
G54D15*
X90000Y125000D03*
X90000Y95000D03*
X90000Y85000D03*
X90000Y75000D03*
X90000Y115000D03*
X90000Y105000D03*
X55000Y72250D03*
X45000Y72250D03*
X65000Y72250D03*
X65000Y82250D03*
X55000Y82250D03*
X45000Y82250D03*
X10000Y65000D03*
X10000Y95000D03*
X10000Y105000D03*
X10000Y115000D03*
X10000Y75000D03*
X10000Y85000D03*
X65000Y8750D03*
X55000Y8750D03*
X35000Y8750D03*
X45000Y8750D03*
X25000Y8750D03*
G54D16*
X90000Y65000D03*
X10000Y125000D03*
X75000Y8750D03*
G54D17*
X88959Y63959D02*
X91041Y63959D01*
X91041Y66041D01*
X88959Y66041D01*
X88959Y63959D01*D02*
X8959Y123959D02*
X11041Y123959D01*
X11041Y126041D01*
X8959Y126041D01*
X8959Y123959D01*D02*
X73959Y7709D02*
X76041Y7709D01*
X76041Y9791D01*
X73959Y9791D01*
X73959Y7709D01*D02*
G54D18*
X35000Y72250D03*
G54D19*
X35000Y82250D03*
G54D20*
X24750Y85000D03*
X18750Y85000D03*
X18750Y62500D03*
X24750Y62500D03*
X18750Y75000D03*
X24750Y75000D03*
X81750Y105000D03*
X75750Y105000D03*
X81750Y115000D03*
X75750Y115000D03*
G54D21*
X24208Y82916D02*
X25292Y82916D01*
X25292Y87084D01*
X24208Y87084D01*
X24208Y82916D01*D02*
X18208Y82916D02*
X19292Y82916D01*
X19292Y87084D01*
X18208Y87084D01*
X18208Y82916D01*D02*
X18208Y60416D02*
X19292Y60416D01*
X19292Y64584D01*
X18208Y64584D01*
X18208Y60416D01*D02*
X24208Y60416D02*
X25292Y60416D01*
X25292Y64584D01*
X24208Y64584D01*
X24208Y60416D01*D02*
X18208Y72916D02*
X19292Y72916D01*
X19292Y77084D01*
X18208Y77084D01*
X18208Y72916D01*D02*
X24208Y72916D02*
X25292Y72916D01*
X25292Y77084D01*
X24208Y77084D01*
X24208Y72916D01*D02*
X81208Y102916D02*
X82292Y102916D01*
X82292Y107084D01*
X81208Y107084D01*
X81208Y102916D01*D02*
X75208Y102916D02*
X76292Y102916D01*
X76292Y107084D01*
X75208Y107084D01*
X75208Y102916D01*D02*
X81208Y112916D02*
X82292Y112916D01*
X82292Y117084D01*
X81208Y117084D01*
X81208Y112916D01*D02*
X75208Y112916D02*
X76292Y112916D01*
X76292Y117084D01*
X75208Y117084D01*
X75208Y112916D01*D02*
G54D22*
X75500Y22250D03*
G54D23*
X10000Y10000D03*
X90000Y10000D03*
X90000Y150000D03*
X10000Y150000D03*
G54D24*
X87000Y35000D03*

M02*
