G04 Generated by Ultiboard 13.0 *
%FSLAX25Y25*%
%MOIN*%

%ADD10C,0.00001*%
%ADD11C,0.01000*%
%ADD12C,0.02000*%
%ADD13C,0.06334*%
%ADD14R,0.02083X0.02083*%
%ADD15C,0.03917*%
%ADD16R,0.01084X0.04168*%
%ADD17C,0.01666*%
%ADD18C,0.02000*%
%ADD19C,0.06000*%
%ADD20R,0.06334X0.06334*%


G04 ColorRGB 0000FF for the following layer *
%LNCopper Bottom*%
%LPD*%
G54D10*
G36*
X99990Y7515D02*
X99990Y7515D01*
X99990Y126485D01*
G74*
D01*
G02X99992Y126555I2010J22*
G01*
G74*
D01*
G03X93555Y132992I6507J70*
G01*
G74*
D01*
G02X93485Y132990I92J2007*
G01*
X93485Y132990D01*
X8515Y132990D01*
G75*
D01*
G02X8445Y132992I22J2010*
G01*
G74*
D01*
G03X2008Y126555I70J6507*
G01*
G74*
D01*
G02X2010Y126485I2007J92*
G01*
X2010Y126485D01*
X2010Y7515D01*
G75*
D01*
G02X2008Y7445I-2010J22*
G01*
G74*
D01*
G03X8445Y1008I6507J70*
G01*
G75*
D01*
G02X8515Y1010I92J-2007*
G01*
X8515Y1010D01*
X93485Y1010D01*
G74*
D01*
G02X93555Y1008I22J2010*
G01*
G74*
D01*
G03X99992Y7445I70J6507*
G01*
G75*
D01*
G02X99990Y7515I2007J92*
G01*
D02*
G37*
%LPC*%
G36*
X90415Y109717D02*
G74*
D01*
G02X89586Y109994I207J1998*
G01*
X89586Y109994D01*
X86534Y111834D01*
G74*
D01*
G02X84292Y109672I2242J81*
G01*
X84292Y109672D01*
X83208Y109672D01*
G75*
D01*
G02X80964Y111916I0J2244*
G01*
X80964Y111916D01*
X80964Y116084D01*
G75*
D01*
G02X83208Y118328I2244J0*
G01*
X83208Y118328D01*
X84292Y118328D01*
G74*
D01*
G02X86534Y116166I1J2244*
G01*
X86534Y116166D01*
X89586Y118006D01*
G74*
D01*
G02X89746Y118092I1031J1726*
G01*
G74*
D01*
G02X90415Y118283I878J1807*
G01*
G75*
D01*
G02X90415Y109717I1582J-4283*
G01*
D02*
G37*
G36*
X90415Y99717D02*
G74*
D01*
G02X89586Y99994I207J1998*
G01*
X89586Y99994D01*
X86534Y101834D01*
G74*
D01*
G02X84292Y99672I2242J81*
G01*
X84292Y99672D01*
X83208Y99672D01*
G75*
D01*
G02X80964Y101916I0J2244*
G01*
X80964Y101916D01*
X80964Y106084D01*
G75*
D01*
G02X83208Y108328I2244J0*
G01*
X83208Y108328D01*
X84292Y108328D01*
G74*
D01*
G02X86534Y106166I1J2244*
G01*
X86534Y106166D01*
X89586Y108006D01*
G74*
D01*
G02X89746Y108092I1031J1726*
G01*
G74*
D01*
G02X90415Y108283I878J1807*
G01*
G75*
D01*
G02X90415Y99717I1582J-4283*
G01*
D02*
G37*
G36*
X88192Y91479D02*
G75*
D01*
G02X88192Y91479I3808J2521*
G01*
D02*
G37*
G36*
X88968Y80585D02*
X88968Y80585D01*
X89732Y79820D01*
X92479Y78810D01*
X92479Y78810D01*
X93616Y78391D01*
G74*
D01*
G02X94537Y77797I868J2356*
G01*
G75*
D01*
G02X88203Y71463I-2539J-3795*
G01*
G74*
D01*
G02X87607Y72388I1761J1789*
G01*
X87607Y72388D01*
X86180Y76268D01*
X75724Y86724D01*
G75*
D01*
G02X74988Y88505I1775J1776*
G01*
X74988Y88505D01*
X74988Y101591D01*
G75*
D01*
G02X74964Y101916I2219J327*
G01*
X74964Y101916D01*
X74964Y106084D01*
G74*
D01*
G02X74988Y106409I2244J2*
G01*
X74988Y106409D01*
X74988Y111488D01*
X35500Y111488D01*
G75*
D01*
G02X35159Y111511I-2J2512*
G01*
G74*
D01*
G02X33724Y112224I342J2489*
G01*
X33724Y112224D01*
X24459Y121488D01*
X16274Y121488D01*
X14179Y120573D01*
G74*
D01*
G02X11792Y119584I2387J2386*
G01*
X11792Y119584D01*
X9709Y119584D01*
G75*
D01*
G02X6334Y122959I0J3375*
G01*
X6334Y122959D01*
X6334Y125042D01*
G75*
D01*
G02X9709Y128416I3375J-1*
G01*
X9709Y128416D01*
X11792Y128416D01*
G74*
D01*
G02X14179Y127427I0J3374*
G01*
X14179Y127427D01*
X16274Y126512D01*
X25497Y126512D01*
G75*
D01*
G02X26339Y126368I4J-2512*
G01*
G74*
D01*
G02X27279Y125774I839J2368*
G01*
X27279Y125774D01*
X36541Y116512D01*
X75005Y116512D01*
G75*
D01*
G02X77208Y118328I2203J-428*
G01*
X77208Y118328D01*
X78292Y118328D01*
G74*
D01*
G02X80536Y116084I0J2244*
G01*
X80536Y116084D01*
X80536Y111916D01*
G75*
D01*
G02X80012Y110475I-2244J0*
G01*
X80012Y110475D01*
X80012Y107525D01*
G74*
D01*
G02X80536Y106084I1719J1441*
G01*
X80536Y106084D01*
X80536Y101916D01*
G75*
D01*
G02X80012Y100475I-2244J0*
G01*
X80012Y100475D01*
X80012Y89541D01*
X88585Y80968D01*
G75*
D01*
G02X88968Y80585I3414J3031*
G01*
D02*
G37*
G36*
X92479Y119458D02*
G75*
D01*
G02X92479Y119458I-479J4542*
G01*
D02*
G37*
G36*
X91113Y62254D02*
X91113Y62254D01*
X91113Y61287D01*
G74*
D01*
G02X90434Y61676I888J2337*
G01*
X90434Y61676D01*
X90434Y59625D01*
G74*
D01*
G02X87625Y62434I525J3334*
G01*
X87625Y62434D01*
X89802Y62434D01*
G74*
D01*
G02X89662Y62738I2195J1195*
G01*
X89662Y62738D01*
X90502Y62738D01*
G75*
D01*
G02X90109Y64512I1497J1262*
G01*
X90109Y64512D01*
X89662Y64512D01*
G74*
D01*
G02X90424Y65566I2337J887*
G01*
X90424Y65566D01*
X87625Y65566D01*
G74*
D01*
G02X90434Y68375I3333J524*
G01*
X90434Y68375D01*
X90434Y65574D01*
G74*
D01*
G02X91113Y65963I1567J1948*
G01*
X91113Y65963D01*
X91113Y65746D01*
G75*
D01*
G02X92887Y65746I887J-1746*
G01*
X92887Y65746D01*
X92887Y65963D01*
G74*
D01*
G02X93566Y65574I888J2337*
G01*
X93566Y65574D01*
X93566Y68375D01*
G74*
D01*
G02X96375Y65566I523J3332*
G01*
X96375Y65566D01*
X93576Y65566D01*
G74*
D01*
G02X94338Y64512I1575J1941*
G01*
X94338Y64512D01*
X93891Y64512D01*
G75*
D01*
G02X93498Y62738I-1891J-512*
G01*
X93498Y62738D01*
X94338Y62738D01*
G74*
D01*
G02X94198Y62434I2336J891*
G01*
X94198Y62434D01*
X96375Y62434D01*
G74*
D01*
G02X93566Y59625I3333J524*
G01*
X93566Y59625D01*
X93566Y61676D01*
G74*
D01*
G02X92887Y61287I1567J1948*
G01*
X92887Y61287D01*
X92887Y62254D01*
G75*
D01*
G02X91113Y62254I-887J1746*
G01*
D02*
G37*
G36*
X6942Y91479D02*
G75*
D01*
G02X6942Y91479I3808J2521*
G01*
D02*
G37*
G36*
X6183Y104000D02*
G75*
D01*
G02X6183Y104000I4567J0*
G01*
D02*
G37*
G36*
X6183Y114000D02*
G75*
D01*
G02X6183Y114000I4567J0*
G01*
D02*
G37*
G36*
X27755Y81545D02*
X27755Y81545D01*
X26175Y84000D01*
X27755Y86455D01*
G74*
D01*
G02X27786Y86084I2212J372*
G01*
X27786Y86084D01*
X27786Y81916D01*
G75*
D01*
G02X27755Y81545I-2244J1*
G01*
D02*
G37*
G36*
X26479Y88123D02*
X26479Y88123D01*
X25000Y85825D01*
X23521Y88123D01*
G75*
D01*
G02X24458Y88328I937J-2038*
G01*
X24458Y88328D01*
X25542Y88328D01*
G74*
D01*
G02X26479Y88123I0J2244*
G01*
D02*
G37*
G36*
X22245Y86455D02*
X22245Y86455D01*
X23825Y84000D01*
X22245Y81545D01*
G75*
D01*
G02X22214Y81916I2212J372*
G01*
X22214Y81916D01*
X22214Y86084D01*
G74*
D01*
G02X22245Y86455I2244J1*
G01*
D02*
G37*
G36*
X26479Y79877D02*
G74*
D01*
G02X25542Y79672I937J2038*
G01*
X25542Y79672D01*
X24458Y79672D01*
G75*
D01*
G02X23521Y79877I0J2244*
G01*
X23521Y79877D01*
X25000Y82175D01*
X26479Y79877D01*
D02*
G37*
G36*
X12335Y88283D02*
G74*
D01*
G02X13167Y88004I207J1998*
G01*
X13167Y88004D01*
X16216Y86166D01*
G75*
D01*
G02X18458Y88328I2242J-81*
G01*
X18458Y88328D01*
X19542Y88328D01*
G74*
D01*
G02X21786Y86084I0J2244*
G01*
X21786Y86084D01*
X21786Y81916D01*
G75*
D01*
G02X19542Y79672I-2244J0*
G01*
X19542Y79672D01*
X18458Y79672D01*
G75*
D01*
G02X16216Y81834I1J2244*
G01*
X16216Y81834D01*
X13165Y79995D01*
G74*
D01*
G02X13042Y79927I1033J1723*
G01*
G74*
D01*
G02X12335Y79717I916J1788*
G01*
G75*
D01*
G02X12335Y88283I-1582J4283*
G01*
D02*
G37*
G36*
X84613Y68162D02*
G74*
D01*
G02X83162Y69613I887J2338*
G01*
X83162Y69613D01*
X84613Y69613D01*
X84613Y68162D01*
D02*
G37*
G36*
X12335Y69717D02*
G75*
D01*
G02X12335Y78283I-1582J4283*
G01*
G74*
D01*
G02X13167Y78004I207J1998*
G01*
X13167Y78004D01*
X16216Y76166D01*
G75*
D01*
G02X18458Y78328I2242J-81*
G01*
X18458Y78328D01*
X19542Y78328D01*
G74*
D01*
G02X21786Y76084I0J2244*
G01*
X21786Y76084D01*
X21786Y71916D01*
G75*
D01*
G02X19542Y69672I-2244J0*
G01*
X19542Y69672D01*
X18458Y69672D01*
G75*
D01*
G02X16216Y71834I1J2244*
G01*
X16216Y71834D01*
X13165Y69995D01*
G74*
D01*
G02X13042Y69927I1033J1723*
G01*
G74*
D01*
G02X12335Y69717I916J1788*
G01*
D02*
G37*
G36*
X17661Y63181D02*
G75*
D01*
G02X18458Y63328I799J-2096*
G01*
X18458Y63328D01*
X19542Y63328D01*
G74*
D01*
G02X21786Y61084I0J2244*
G01*
X21786Y61084D01*
X21786Y56916D01*
G75*
D01*
G02X19542Y54672I-2244J0*
G01*
X19542Y54672D01*
X18458Y54672D01*
G75*
D01*
G02X16214Y56916I0J2244*
G01*
X16214Y56916D01*
X16214Y58944D01*
X15006Y60152D01*
X11761Y59434D01*
G75*
D01*
G02X10887Y59435I-435J1961*
G01*
G75*
D01*
G02X13618Y67554I-137J4565*
G01*
G74*
D01*
G02X14317Y67025I834J1828*
G01*
X14317Y67025D01*
X17126Y63716D01*
X17661Y63181D01*
D02*
G37*
G36*
X59000Y47478D02*
G75*
D01*
G02X59025Y47918I2006J107*
G01*
X59025Y47918D01*
X59490Y50669D01*
X59490Y52831D01*
X59025Y55582D01*
G75*
D01*
G02X59000Y56022I1982J333*
G01*
G75*
D01*
G02X64000Y56022I2500J0*
G01*
G75*
D01*
G02X63974Y55578I-2006J-105*
G01*
X63974Y55578D01*
X63510Y52831D01*
X63510Y50669D01*
X63974Y47922D01*
G75*
D01*
G02X64000Y47478I-1980J-339*
G01*
G75*
D01*
G02X59000Y47478I-2500J0*
G01*
D02*
G37*
G36*
X69500Y47478D02*
G75*
D01*
G02X64500Y47478I-2500J0*
G01*
G75*
D01*
G02X64525Y47918I2006J107*
G01*
X64525Y47918D01*
X64990Y50669D01*
X64990Y53497D01*
G75*
D01*
G02X65579Y54921I2010J2*
G01*
X65579Y54921D01*
X71784Y61126D01*
G74*
D01*
G02X71022Y61000I784J2374*
G01*
G75*
D01*
G02X70788Y61001I-108J2006*
G01*
G74*
D01*
G02X70582Y61025I129J2006*
G01*
X70582Y61025D01*
X67831Y61490D01*
X61751Y61490D01*
G75*
D01*
G02X60329Y62079I0J2010*
G01*
X60329Y62079D01*
X57378Y65030D01*
X53627Y65960D01*
G74*
D01*
G02X52842Y66351I482J1950*
G01*
G75*
D01*
G02X50966Y73057I1907J4149*
G01*
X50966Y73057D01*
X48534Y73057D01*
G75*
D01*
G02X40966Y73057I-3784J-2555*
G01*
X40966Y73057D01*
X40149Y73057D01*
X40087Y72995D01*
X39106Y69333D01*
G74*
D01*
G02X39082Y69252I1938J530*
G01*
G74*
D01*
G02X38694Y68548I1918J598*
G01*
G75*
D01*
G02X32012Y67056I-3943J1952*
G01*
X32012Y67056D01*
X32012Y50012D01*
X47000Y50012D01*
G75*
D01*
G02X47000Y44988I0J-2512*
G01*
X47000Y44988D01*
X29500Y44988D01*
G75*
D01*
G02X26988Y47500I0J2512*
G01*
X26988Y47500D01*
X26988Y52203D01*
G75*
D01*
G02X23651Y53646I-987J2297*
G01*
G74*
D01*
G02X23527Y54072I1854J771*
G01*
X23527Y54072D01*
X23514Y54147D01*
G74*
D01*
G02X23013Y55199I1485J1353*
G01*
G75*
D01*
G02X22214Y56916I1445J1717*
G01*
X22214Y56916D01*
X22214Y61084D01*
G75*
D01*
G02X24458Y63328I2244J0*
G01*
X24458Y63328D01*
X25542Y63328D01*
G74*
D01*
G02X26988Y62800I0J2244*
G01*
X26988Y62800D01*
X26988Y68459D01*
X25764Y69683D01*
G74*
D01*
G02X25542Y69672I222J2233*
G01*
X25542Y69672D01*
X24458Y69672D01*
G75*
D01*
G02X22214Y71916I0J2244*
G01*
X22214Y71916D01*
X22214Y76084D01*
G75*
D01*
G02X24458Y78328I2244J0*
G01*
X24458Y78328D01*
X25542Y78328D01*
G74*
D01*
G02X27786Y76084I0J2244*
G01*
X27786Y76084D01*
X27786Y74767D01*
X30598Y71955D01*
G74*
D01*
G02X32798Y74443I4152J1454*
G01*
G74*
D01*
G02X33586Y74857I1305J1527*
G01*
X33586Y74857D01*
X37245Y75837D01*
X37334Y75926D01*
X36372Y75926D01*
X36372Y78878D01*
X39324Y78878D01*
X39324Y77333D01*
G75*
D01*
G02X39300Y77077I-1407J3*
G01*
G75*
D01*
G02X39319Y77077I10J-2010*
G01*
X39319Y77077D01*
X41727Y77077D01*
G75*
D01*
G02X47773Y77077I3023J3422*
G01*
X47773Y77077D01*
X51727Y77077D01*
G75*
D01*
G02X57773Y77077I3023J3422*
G01*
X57773Y77077D01*
X61727Y77077D01*
G75*
D01*
G02X69275Y81117I3024J3421*
G01*
X69275Y81117D01*
X70338Y82180D01*
X71954Y84454D01*
G74*
D01*
G02X72248Y84784I1638J1163*
G01*
G75*
D01*
G02X75783Y81248I1760J-1776*
G01*
G74*
D01*
G02X75453Y80954I1493J1343*
G01*
X75453Y80954D01*
X73180Y79338D01*
X71342Y77500D01*
X75919Y72923D01*
G74*
D01*
G02X76510Y71500I1418J1423*
G01*
X76510Y71500D01*
X76510Y61000D01*
G75*
D01*
G02X75919Y59577I-2010J1*
G01*
X75919Y59577D01*
X69010Y52668D01*
X69010Y50669D01*
X69474Y47922D01*
G75*
D01*
G02X69500Y47478I-1980J-339*
G01*
D02*
G37*
G36*
X33000Y80500D02*
G75*
D01*
G02X33000Y80500I1750J0*
G01*
D02*
G37*
G36*
X30176Y77333D02*
X30176Y77333D01*
X30176Y78878D01*
X33128Y78878D01*
X33128Y75926D01*
X31583Y75926D01*
G75*
D01*
G02X30176Y77333I0J1407*
G01*
D02*
G37*
G36*
X84850Y70500D02*
G75*
D01*
G02X84850Y70500I650J0*
G01*
D02*
G37*
G36*
X87838Y69613D02*
G74*
D01*
G02X86387Y68162I2338J887*
G01*
X86387Y68162D01*
X86387Y69613D01*
X87838Y69613D01*
D02*
G37*
G36*
X83162Y71387D02*
G74*
D01*
G02X84613Y72838I2338J887*
G01*
X84613Y72838D01*
X84613Y71387D01*
X83162Y71387D01*
D02*
G37*
G36*
X86387Y72838D02*
G74*
D01*
G02X87838Y71387I887J2338*
G01*
X87838Y71387D01*
X86387Y71387D01*
X86387Y72838D01*
D02*
G37*
G36*
X39324Y83667D02*
X39324Y83667D01*
X39324Y82122D01*
X36372Y82122D01*
X36372Y85074D01*
X37917Y85074D01*
G74*
D01*
G02X39324Y83667I0J1407*
G01*
D02*
G37*
G36*
X30176Y83667D02*
G75*
D01*
G02X31583Y85074I1407J0*
G01*
X31583Y85074D01*
X33128Y85074D01*
X33128Y82122D01*
X30176Y82122D01*
X30176Y83667D01*
D02*
G37*
G36*
X43521Y33387D02*
G74*
D01*
G02X44972Y34838I2337J886*
G01*
X44972Y34838D01*
X44972Y33387D01*
X43521Y33387D01*
D02*
G37*
G36*
X45208Y32500D02*
G75*
D01*
G02X45208Y32500I650J0*
G01*
D02*
G37*
G36*
X46745Y34838D02*
G74*
D01*
G02X48196Y33387I887J2338*
G01*
X48196Y33387D01*
X46745Y33387D01*
X46745Y34838D01*
D02*
G37*
G36*
X9650Y38500D02*
G75*
D01*
G02X9650Y38500I3850J0*
G01*
D02*
G37*
G36*
X48196Y31613D02*
G74*
D01*
G02X46745Y30162I2338J887*
G01*
X46745Y30162D01*
X46745Y31613D01*
X48196Y31613D01*
D02*
G37*
G36*
X44972Y30162D02*
G74*
D01*
G02X43521Y31613I887J2338*
G01*
X43521Y31613D01*
X44972Y31613D01*
X44972Y30162D01*
D02*
G37*
G36*
X42162Y20887D02*
G74*
D01*
G02X43613Y22338I2338J887*
G01*
X43613Y22338D01*
X43613Y20887D01*
X42162Y20887D01*
D02*
G37*
G36*
X45387Y22338D02*
G74*
D01*
G02X46838Y20887I887J2338*
G01*
X46838Y20887D01*
X45387Y20887D01*
X45387Y22338D01*
D02*
G37*
G36*
X46838Y19113D02*
G74*
D01*
G02X45387Y17662I2338J887*
G01*
X45387Y17662D01*
X45387Y19113D01*
X46838Y19113D01*
D02*
G37*
G36*
X43613Y17662D02*
G74*
D01*
G02X42162Y19113I887J2338*
G01*
X42162Y19113D01*
X43613Y19113D01*
X43613Y17662D01*
D02*
G37*
G36*
X43850Y20000D02*
G75*
D01*
G02X43850Y20000I650J0*
G01*
D02*
G37*
G36*
X9650Y26500D02*
G75*
D01*
G02X9650Y26500I3850J0*
G01*
D02*
G37*
G36*
X71058Y9000D02*
G75*
D01*
G02X71058Y9000I4567J0*
G01*
D02*
G37*
G36*
X61058Y9000D02*
G75*
D01*
G02X61058Y9000I4567J0*
G01*
D02*
G37*
G36*
X51058Y9000D02*
G75*
D01*
G02X51058Y9000I4567J0*
G01*
D02*
G37*
G36*
X41058Y9000D02*
G75*
D01*
G02X41058Y9000I4567J0*
G01*
D02*
G37*
G36*
X31058Y9000D02*
G75*
D01*
G02X31058Y9000I4567J0*
G01*
D02*
G37*
G36*
X30001Y10566D02*
X30001Y10566D01*
X27191Y10566D01*
X27191Y13375D01*
G74*
D01*
G02X30001Y10566I522J3332*
G01*
D02*
G37*
G36*
X24059Y13375D02*
X24059Y13375D01*
X24059Y10566D01*
X21250Y10566D01*
G74*
D01*
G02X24059Y13375I3333J524*
G01*
D02*
G37*
G36*
X27191Y4625D02*
X27191Y4625D01*
X27191Y7434D01*
X30001Y7434D01*
G74*
D01*
G02X27191Y4625I3334J525*
G01*
D02*
G37*
G36*
X23667Y9000D02*
G75*
D01*
G02X23667Y9000I1958J0*
G01*
D02*
G37*
G36*
X21250Y7434D02*
X21250Y7434D01*
X24059Y7434D01*
X24059Y4625D01*
G74*
D01*
G02X21250Y7434I525J3334*
G01*
D02*
G37*
%LPD*%
G36*
X60966Y73057D02*
X60966Y73057D01*
X58534Y73057D01*
G74*
D01*
G02X58899Y72408I3784J2555*
G01*
G74*
D01*
G02X59290Y71623I1559J1267*
G01*
X59290Y71623D01*
X60220Y67872D01*
X62582Y65510D01*
X67831Y65510D01*
X70582Y65975D01*
G75*
D01*
G02X70934Y66003I335J-1982*
G01*
G74*
D01*
G02X71022Y66000I24J2010*
G01*
G74*
D01*
G02X72490Y65507I23J2500*
G01*
X72490Y65507D01*
X72490Y70668D01*
X68500Y74658D01*
X67769Y73927D01*
G75*
D01*
G02X60966Y73057I-3019J-3427*
G01*
D02*
G37*
G54D11*
X60966Y73057D02*
X58534Y73057D01*
G74*
D01*
G02X58899Y72408I3784J2555*
G01*
G74*
D01*
G02X59290Y71623I1559J1267*
G01*
X60220Y67872D01*
X62582Y65510D01*
X67831Y65510D01*
X70582Y65975D01*
G75*
D01*
G02X70934Y66003I335J-1982*
G01*
G74*
D01*
G02X71022Y66000I24J2010*
G01*
G74*
D01*
G02X72490Y65507I23J2500*
G01*
X72490Y70668D01*
X68500Y74658D01*
X67769Y73927D01*
G75*
D01*
G02X60966Y73057I-3019J-3427*
G01*
X90415Y109717D02*
G74*
D01*
G02X89586Y109994I207J1998*
G01*
X86534Y111834D01*
G74*
D01*
G02X84292Y109672I2242J81*
G01*
X83208Y109672D01*
G75*
D01*
G02X80964Y111916I0J2244*
G01*
X80964Y116084D01*
G75*
D01*
G02X83208Y118328I2244J0*
G01*
X84292Y118328D01*
G74*
D01*
G02X86534Y116166I1J2244*
G01*
X89586Y118006D01*
G74*
D01*
G02X89746Y118092I1031J1726*
G01*
G74*
D01*
G02X90415Y118283I878J1807*
G01*
G75*
D01*
G02X90415Y109717I1582J-4283*
G01*
X90415Y99717D02*
G74*
D01*
G02X89586Y99994I207J1998*
G01*
X86534Y101834D01*
G74*
D01*
G02X84292Y99672I2242J81*
G01*
X83208Y99672D01*
G75*
D01*
G02X80964Y101916I0J2244*
G01*
X80964Y106084D01*
G75*
D01*
G02X83208Y108328I2244J0*
G01*
X84292Y108328D01*
G74*
D01*
G02X86534Y106166I1J2244*
G01*
X89586Y108006D01*
G74*
D01*
G02X89746Y108092I1031J1726*
G01*
G74*
D01*
G02X90415Y108283I878J1807*
G01*
G75*
D01*
G02X90415Y99717I1582J-4283*
G01*
X88192Y91479D02*
G75*
D01*
G02X88192Y91479I3808J2521*
G01*
X88968Y80585D02*
X89732Y79820D01*
X92479Y78810D01*
X92479Y78810D01*
X93616Y78391D01*
G74*
D01*
G02X94537Y77797I868J2356*
G01*
G75*
D01*
G02X88203Y71463I-2539J-3795*
G01*
G74*
D01*
G02X87607Y72388I1761J1789*
G01*
X86180Y76268D01*
X75724Y86724D01*
G75*
D01*
G02X74988Y88505I1775J1776*
G01*
X74988Y101591D01*
G75*
D01*
G02X74964Y101916I2219J327*
G01*
X74964Y106084D01*
G74*
D01*
G02X74988Y106409I2244J2*
G01*
X74988Y111488D01*
X35500Y111488D01*
G75*
D01*
G02X35159Y111511I-2J2512*
G01*
G74*
D01*
G02X33724Y112224I342J2489*
G01*
X24459Y121488D01*
X16274Y121488D01*
X14179Y120573D01*
G74*
D01*
G02X11792Y119584I2387J2386*
G01*
X9709Y119584D01*
G75*
D01*
G02X6334Y122959I0J3375*
G01*
X6334Y125042D01*
G75*
D01*
G02X9709Y128416I3375J-1*
G01*
X11792Y128416D01*
G74*
D01*
G02X14179Y127427I0J3374*
G01*
X16274Y126512D01*
X25497Y126512D01*
G75*
D01*
G02X26339Y126368I4J-2512*
G01*
G74*
D01*
G02X27279Y125774I839J2368*
G01*
X36541Y116512D01*
X75005Y116512D01*
G75*
D01*
G02X77208Y118328I2203J-428*
G01*
X78292Y118328D01*
G74*
D01*
G02X80536Y116084I0J2244*
G01*
X80536Y111916D01*
G75*
D01*
G02X80012Y110475I-2244J0*
G01*
X80012Y107525D01*
G74*
D01*
G02X80536Y106084I1719J1441*
G01*
X80536Y101916D01*
G75*
D01*
G02X80012Y100475I-2244J0*
G01*
X80012Y89541D01*
X88585Y80968D01*
G75*
D01*
G02X88968Y80585I3414J3031*
G01*
X92479Y119458D02*
G75*
D01*
G02X92479Y119458I-479J4542*
G01*
X91113Y62254D02*
X91113Y61287D01*
G74*
D01*
G02X90434Y61676I888J2337*
G01*
X90434Y59625D01*
G74*
D01*
G02X87625Y62434I525J3334*
G01*
X89802Y62434D01*
G74*
D01*
G02X89662Y62738I2195J1195*
G01*
X90502Y62738D01*
G75*
D01*
G02X90109Y64512I1497J1262*
G01*
X89662Y64512D01*
G74*
D01*
G02X90424Y65566I2337J887*
G01*
X87625Y65566D01*
G74*
D01*
G02X90434Y68375I3333J524*
G01*
X90434Y65574D01*
G74*
D01*
G02X91113Y65963I1567J1948*
G01*
X91113Y65746D01*
G75*
D01*
G02X92887Y65746I887J-1746*
G01*
X92887Y65963D01*
G74*
D01*
G02X93566Y65574I888J2337*
G01*
X93566Y68375D01*
G74*
D01*
G02X96375Y65566I523J3332*
G01*
X93576Y65566D01*
G74*
D01*
G02X94338Y64512I1575J1941*
G01*
X93891Y64512D01*
G75*
D01*
G02X93498Y62738I-1891J-512*
G01*
X94338Y62738D01*
G74*
D01*
G02X94198Y62434I2336J891*
G01*
X96375Y62434D01*
G74*
D01*
G02X93566Y59625I3333J524*
G01*
X93566Y61676D01*
G74*
D01*
G02X92887Y61287I1567J1948*
G01*
X92887Y62254D01*
G75*
D01*
G02X91113Y62254I-887J1746*
G01*
X6942Y91479D02*
G75*
D01*
G02X6942Y91479I3808J2521*
G01*
X6183Y104000D02*
G75*
D01*
G02X6183Y104000I4567J0*
G01*
X6183Y114000D02*
G75*
D01*
G02X6183Y114000I4567J0*
G01*
X27755Y81545D02*
X26175Y84000D01*
X27755Y86455D01*
G74*
D01*
G02X27786Y86084I2212J372*
G01*
X27786Y81916D01*
G75*
D01*
G02X27755Y81545I-2244J1*
G01*
X26479Y88123D02*
X25000Y85825D01*
X23521Y88123D01*
G75*
D01*
G02X24458Y88328I937J-2038*
G01*
X25542Y88328D01*
G74*
D01*
G02X26479Y88123I0J2244*
G01*
X22245Y86455D02*
X23825Y84000D01*
X22245Y81545D01*
G75*
D01*
G02X22214Y81916I2212J372*
G01*
X22214Y86084D01*
G74*
D01*
G02X22245Y86455I2244J1*
G01*
X26479Y79877D02*
G74*
D01*
G02X25542Y79672I937J2038*
G01*
X24458Y79672D01*
G75*
D01*
G02X23521Y79877I0J2244*
G01*
X25000Y82175D01*
X26479Y79877D01*
X12335Y88283D02*
G74*
D01*
G02X13167Y88004I207J1998*
G01*
X16216Y86166D01*
G75*
D01*
G02X18458Y88328I2242J-81*
G01*
X19542Y88328D01*
G74*
D01*
G02X21786Y86084I0J2244*
G01*
X21786Y81916D01*
G75*
D01*
G02X19542Y79672I-2244J0*
G01*
X18458Y79672D01*
G75*
D01*
G02X16216Y81834I1J2244*
G01*
X13165Y79995D01*
G74*
D01*
G02X13042Y79927I1033J1723*
G01*
G74*
D01*
G02X12335Y79717I916J1788*
G01*
G75*
D01*
G02X12335Y88283I-1582J4283*
G01*
X84613Y68162D02*
G74*
D01*
G02X83162Y69613I887J2338*
G01*
X84613Y69613D01*
X84613Y68162D01*
X12335Y69717D02*
G75*
D01*
G02X12335Y78283I-1582J4283*
G01*
G74*
D01*
G02X13167Y78004I207J1998*
G01*
X16216Y76166D01*
G75*
D01*
G02X18458Y78328I2242J-81*
G01*
X19542Y78328D01*
G74*
D01*
G02X21786Y76084I0J2244*
G01*
X21786Y71916D01*
G75*
D01*
G02X19542Y69672I-2244J0*
G01*
X18458Y69672D01*
G75*
D01*
G02X16216Y71834I1J2244*
G01*
X13165Y69995D01*
G74*
D01*
G02X13042Y69927I1033J1723*
G01*
G74*
D01*
G02X12335Y69717I916J1788*
G01*
X17661Y63181D02*
G75*
D01*
G02X18458Y63328I799J-2096*
G01*
X19542Y63328D01*
G74*
D01*
G02X21786Y61084I0J2244*
G01*
X21786Y56916D01*
G75*
D01*
G02X19542Y54672I-2244J0*
G01*
X18458Y54672D01*
G75*
D01*
G02X16214Y56916I0J2244*
G01*
X16214Y58944D01*
X15006Y60152D01*
X11761Y59434D01*
G75*
D01*
G02X10887Y59435I-435J1961*
G01*
G75*
D01*
G02X13618Y67554I-137J4565*
G01*
G74*
D01*
G02X14317Y67025I834J1828*
G01*
X17126Y63716D01*
X17661Y63181D01*
X59000Y47478D02*
G75*
D01*
G02X59025Y47918I2006J107*
G01*
X59490Y50669D01*
X59490Y52831D01*
X59025Y55582D01*
G75*
D01*
G02X59000Y56022I1982J333*
G01*
G75*
D01*
G02X64000Y56022I2500J0*
G01*
G75*
D01*
G02X63974Y55578I-2006J-105*
G01*
X63510Y52831D01*
X63510Y50669D01*
X63974Y47922D01*
G75*
D01*
G02X64000Y47478I-1980J-339*
G01*
G75*
D01*
G02X59000Y47478I-2500J0*
G01*
X69500Y47478D02*
G75*
D01*
G02X64500Y47478I-2500J0*
G01*
G75*
D01*
G02X64525Y47918I2006J107*
G01*
X64990Y50669D01*
X64990Y53497D01*
G75*
D01*
G02X65579Y54921I2010J2*
G01*
X71784Y61126D01*
G74*
D01*
G02X71022Y61000I784J2374*
G01*
G75*
D01*
G02X70788Y61001I-108J2006*
G01*
G74*
D01*
G02X70582Y61025I129J2006*
G01*
X67831Y61490D01*
X61751Y61490D01*
G75*
D01*
G02X60329Y62079I0J2010*
G01*
X57378Y65030D01*
X53627Y65960D01*
G74*
D01*
G02X52842Y66351I482J1950*
G01*
G75*
D01*
G02X50966Y73057I1907J4149*
G01*
X48534Y73057D01*
G75*
D01*
G02X40966Y73057I-3784J-2555*
G01*
X40149Y73057D01*
X40087Y72995D01*
X39106Y69333D01*
G74*
D01*
G02X39082Y69252I1938J530*
G01*
G74*
D01*
G02X38694Y68548I1918J598*
G01*
G75*
D01*
G02X32012Y67056I-3943J1952*
G01*
X32012Y50012D01*
X47000Y50012D01*
G75*
D01*
G02X47000Y44988I0J-2512*
G01*
X29500Y44988D01*
G75*
D01*
G02X26988Y47500I0J2512*
G01*
X26988Y52203D01*
G75*
D01*
G02X23651Y53646I-987J2297*
G01*
G74*
D01*
G02X23527Y54072I1854J771*
G01*
X23514Y54147D01*
G74*
D01*
G02X23013Y55199I1485J1353*
G01*
G75*
D01*
G02X22214Y56916I1445J1717*
G01*
X22214Y61084D01*
G75*
D01*
G02X24458Y63328I2244J0*
G01*
X25542Y63328D01*
G74*
D01*
G02X26988Y62800I0J2244*
G01*
X26988Y68459D01*
X25764Y69683D01*
G74*
D01*
G02X25542Y69672I222J2233*
G01*
X24458Y69672D01*
G75*
D01*
G02X22214Y71916I0J2244*
G01*
X22214Y76084D01*
G75*
D01*
G02X24458Y78328I2244J0*
G01*
X25542Y78328D01*
G74*
D01*
G02X27786Y76084I0J2244*
G01*
X27786Y74767D01*
X30598Y71955D01*
G74*
D01*
G02X32798Y74443I4152J1454*
G01*
G74*
D01*
G02X33586Y74857I1305J1527*
G01*
X37245Y75837D01*
X37334Y75926D01*
X36372Y75926D01*
X36372Y78878D01*
X39324Y78878D01*
X39324Y77333D01*
G75*
D01*
G02X39300Y77077I-1407J3*
G01*
G75*
D01*
G02X39319Y77077I10J-2010*
G01*
X41727Y77077D01*
G75*
D01*
G02X47773Y77077I3023J3422*
G01*
X51727Y77077D01*
G75*
D01*
G02X57773Y77077I3023J3422*
G01*
X61727Y77077D01*
G75*
D01*
G02X69275Y81117I3024J3421*
G01*
X70338Y82180D01*
X71954Y84454D01*
G74*
D01*
G02X72248Y84784I1638J1163*
G01*
G75*
D01*
G02X75783Y81248I1760J-1776*
G01*
G74*
D01*
G02X75453Y80954I1493J1343*
G01*
X73180Y79338D01*
X71342Y77500D01*
X75919Y72923D01*
G74*
D01*
G02X76510Y71500I1418J1423*
G01*
X76510Y61000D01*
G75*
D01*
G02X75919Y59577I-2010J1*
G01*
X69010Y52668D01*
X69010Y50669D01*
X69474Y47922D01*
G75*
D01*
G02X69500Y47478I-1980J-339*
G01*
X33000Y80500D02*
G75*
D01*
G02X33000Y80500I1750J0*
G01*
X30176Y77333D02*
X30176Y78878D01*
X33128Y78878D01*
X33128Y75926D01*
X31583Y75926D01*
G75*
D01*
G02X30176Y77333I0J1407*
G01*
X84850Y70500D02*
G75*
D01*
G02X84850Y70500I650J0*
G01*
X87838Y69613D02*
G74*
D01*
G02X86387Y68162I2338J887*
G01*
X86387Y69613D01*
X87838Y69613D01*
X83162Y71387D02*
G74*
D01*
G02X84613Y72838I2338J887*
G01*
X84613Y71387D01*
X83162Y71387D01*
X86387Y72838D02*
G74*
D01*
G02X87838Y71387I887J2338*
G01*
X86387Y71387D01*
X86387Y72838D01*
X39324Y83667D02*
X39324Y82122D01*
X36372Y82122D01*
X36372Y85074D01*
X37917Y85074D01*
G74*
D01*
G02X39324Y83667I0J1407*
G01*
X30176Y83667D02*
G75*
D01*
G02X31583Y85074I1407J0*
G01*
X33128Y85074D01*
X33128Y82122D01*
X30176Y82122D01*
X30176Y83667D01*
X43521Y33387D02*
G74*
D01*
G02X44972Y34838I2337J886*
G01*
X44972Y33387D01*
X43521Y33387D01*
X45208Y32500D02*
G75*
D01*
G02X45208Y32500I650J0*
G01*
X46745Y34838D02*
G74*
D01*
G02X48196Y33387I887J2338*
G01*
X46745Y33387D01*
X46745Y34838D01*
X9650Y38500D02*
G75*
D01*
G02X9650Y38500I3850J0*
G01*
X48196Y31613D02*
G74*
D01*
G02X46745Y30162I2338J887*
G01*
X46745Y31613D01*
X48196Y31613D01*
X44972Y30162D02*
G74*
D01*
G02X43521Y31613I887J2338*
G01*
X44972Y31613D01*
X44972Y30162D01*
X42162Y20887D02*
G74*
D01*
G02X43613Y22338I2338J887*
G01*
X43613Y20887D01*
X42162Y20887D01*
X45387Y22338D02*
G74*
D01*
G02X46838Y20887I887J2338*
G01*
X45387Y20887D01*
X45387Y22338D01*
X46838Y19113D02*
G74*
D01*
G02X45387Y17662I2338J887*
G01*
X45387Y19113D01*
X46838Y19113D01*
X43613Y17662D02*
G74*
D01*
G02X42162Y19113I887J2338*
G01*
X43613Y19113D01*
X43613Y17662D01*
X43850Y20000D02*
G75*
D01*
G02X43850Y20000I650J0*
G01*
X9650Y26500D02*
G75*
D01*
G02X9650Y26500I3850J0*
G01*
X71058Y9000D02*
G75*
D01*
G02X71058Y9000I4567J0*
G01*
X61058Y9000D02*
G75*
D01*
G02X61058Y9000I4567J0*
G01*
X51058Y9000D02*
G75*
D01*
G02X51058Y9000I4567J0*
G01*
X41058Y9000D02*
G75*
D01*
G02X41058Y9000I4567J0*
G01*
X31058Y9000D02*
G75*
D01*
G02X31058Y9000I4567J0*
G01*
X30001Y10566D02*
X27191Y10566D01*
X27191Y13375D01*
G74*
D01*
G02X30001Y10566I522J3332*
G01*
X24059Y13375D02*
X24059Y10566D01*
X21250Y10566D01*
G74*
D01*
G02X24059Y13375I3333J524*
G01*
X27191Y4625D02*
X27191Y7434D01*
X30001Y7434D01*
G74*
D01*
G02X27191Y4625I3334J525*
G01*
X23667Y9000D02*
G75*
D01*
G02X23667Y9000I1958J0*
G01*
X21250Y7434D02*
X24059Y7434D01*
X24059Y4625D01*
G74*
D01*
G02X21250Y7434I525J3334*
G01*
X99990Y7515D02*
X99990Y126485D01*
G74*
D01*
G02X99992Y126555I2010J22*
G01*
G74*
D01*
G03X93555Y132992I6507J70*
G01*
G74*
D01*
G02X93485Y132990I92J2007*
G01*
X8515Y132990D01*
G75*
D01*
G02X8445Y132992I22J2010*
G01*
G74*
D01*
G03X2008Y126555I70J6507*
G01*
G74*
D01*
G02X2010Y126485I2007J92*
G01*
X2010Y7515D01*
G75*
D01*
G02X2008Y7445I-2010J22*
G01*
G74*
D01*
G03X8445Y1008I6507J70*
G01*
G75*
D01*
G02X8515Y1010I92J-2007*
G01*
X93485Y1010D01*
G74*
D01*
G02X93555Y1008I22J2010*
G01*
G74*
D01*
G03X99992Y7445I70J6507*
G01*
G75*
D01*
G02X99990Y7515I2007J92*
G01*
X19000Y59000D02*
X14000Y64000D01*
X10625Y64000D01*
X26000Y54500D02*
X25000Y55500D01*
X25000Y59000D01*
X34750Y70500D02*
X39317Y75067D01*
X66067Y75067D01*
X74000Y83000D01*
X11000Y74000D02*
X19000Y74000D01*
X19000Y84000D02*
X10750Y84000D01*
X54750Y70500D02*
X61750Y63500D01*
X71000Y63500D01*
X61500Y47500D02*
X61500Y56000D01*
X68500Y77500D02*
X74500Y71500D01*
X67000Y53500D02*
X74500Y61000D01*
X74500Y71500D01*
X67000Y53500D02*
X67000Y47500D01*
X84000Y114000D02*
X92000Y114000D01*
X83750Y104000D02*
X92250Y104000D01*
G36*
X58404Y66846D02*
X58404Y66846D01*
X54108Y67911D01*
X57339Y71142D01*
X58404Y66846D01*
D02*
G37*
X54108Y67911D01*
X57339Y71142D01*
X58404Y66846D01*
G36*
X38286Y74036D02*
X38286Y74036D01*
X37165Y69853D01*
X34103Y72915D01*
X38286Y74036D01*
D02*
G37*
X37165Y69853D01*
X34103Y72915D01*
X38286Y74036D01*
G36*
X86833Y104000D02*
X86833Y104000D01*
X90623Y106284D01*
X90623Y101716D01*
X86833Y104000D01*
D02*
G37*
X90623Y106284D01*
X90623Y101716D01*
X86833Y104000D01*
G36*
X86833Y114000D02*
X86833Y114000D01*
X90623Y116284D01*
X90623Y111716D01*
X86833Y114000D01*
D02*
G37*
X90623Y116284D01*
X90623Y111716D01*
X86833Y114000D01*
G36*
X67000Y50500D02*
X67000Y50500D01*
X67493Y47583D01*
X66507Y47583D01*
X67000Y50500D01*
D02*
G37*
X67493Y47583D01*
X66507Y47583D01*
X67000Y50500D01*
G36*
X61500Y53000D02*
X61500Y53000D01*
X61007Y55917D01*
X61993Y55917D01*
X61500Y53000D01*
D02*
G37*
X61007Y55917D01*
X61993Y55917D01*
X61500Y53000D01*
G36*
X61500Y50500D02*
X61500Y50500D01*
X61993Y47583D01*
X61007Y47583D01*
X61500Y50500D01*
D02*
G37*
X61993Y47583D01*
X61007Y47583D01*
X61500Y50500D01*
G36*
X68000Y63500D02*
X68000Y63500D01*
X70917Y63993D01*
X70917Y63007D01*
X68000Y63500D01*
D02*
G37*
X70917Y63993D01*
X70917Y63007D01*
X68000Y63500D01*
G36*
X71879Y80879D02*
X71879Y80879D01*
X73592Y83290D01*
X74290Y82592D01*
X71879Y80879D01*
D02*
G37*
X73592Y83290D01*
X74290Y82592D01*
X71879Y80879D01*
G36*
X25000Y57328D02*
X25000Y57328D01*
X26437Y54743D01*
X25507Y54414D01*
X25000Y57328D01*
D02*
G37*
X26437Y54743D01*
X25507Y54414D01*
X25000Y57328D01*
G36*
X15917Y84000D02*
X15917Y84000D01*
X12127Y81716D01*
X12127Y86284D01*
X15917Y84000D01*
D02*
G37*
X12127Y81716D01*
X12127Y86284D01*
X15917Y84000D01*
G36*
X15917Y74000D02*
X15917Y74000D01*
X12127Y71716D01*
X12127Y76284D01*
X15917Y74000D01*
D02*
G37*
X12127Y71716D01*
X12127Y76284D01*
X15917Y74000D01*
G36*
X15647Y62353D02*
X15647Y62353D01*
X11326Y61396D01*
X12783Y65726D01*
X15647Y62353D01*
D02*
G37*
X11326Y61396D01*
X12783Y65726D01*
X15647Y62353D01*
G54D12*
X47000Y47500D02*
X29500Y47500D01*
X29500Y69500D01*
X25000Y74000D02*
X29500Y69500D01*
X35500Y114000D02*
X77750Y114000D01*
X35500Y114000D02*
X25500Y124000D01*
X11000Y124000D01*
X92000Y74000D02*
X77500Y88500D01*
X77500Y113875D01*
G36*
X88346Y77654D02*
X88346Y77654D01*
X92748Y76034D01*
X89966Y73252D01*
X88346Y77654D01*
D02*
G37*
X92748Y76034D01*
X89966Y73252D01*
X88346Y77654D01*
G36*
X15750Y124000D02*
X15750Y124000D01*
X11550Y122167D01*
X11550Y125833D01*
X15750Y124000D01*
D02*
G37*
X11550Y122167D01*
X11550Y125833D01*
X15750Y124000D01*
G54D13*
X45625Y9000D03*
X55625Y9000D03*
X65625Y9000D03*
X35625Y9000D03*
X75625Y9000D03*
X10750Y64000D03*
X10750Y74000D03*
X10750Y84000D03*
X10750Y94000D03*
X10750Y104000D03*
X10750Y114000D03*
X92000Y114000D03*
X92000Y74000D03*
X92000Y104000D03*
X92000Y94000D03*
X92000Y84000D03*
X92000Y124000D03*
X54750Y70500D03*
X64750Y80500D03*
X44750Y70500D03*
X44750Y80500D03*
X54750Y80500D03*
X64750Y70500D03*
G54D14*
X25625Y9000D03*
X10750Y124000D03*
X92000Y64000D03*
G54D15*
X24584Y7959D02*
X26666Y7959D01*
X26666Y10041D01*
X24584Y10041D01*
X24584Y7959D01*D02*
X9709Y122959D02*
X11791Y122959D01*
X11791Y125041D01*
X9709Y125041D01*
X9709Y122959D01*D02*
X90959Y62959D02*
X93041Y62959D01*
X93041Y65041D01*
X90959Y65041D01*
X90959Y62959D01*D02*
G54D16*
X19000Y84000D03*
X25000Y84000D03*
X19000Y59000D03*
X25000Y59000D03*
X25000Y74000D03*
X19000Y74000D03*
X77750Y114000D03*
X83750Y114000D03*
X83750Y104000D03*
X77750Y104000D03*
G54D17*
X18458Y81916D02*
X19542Y81916D01*
X19542Y86084D01*
X18458Y86084D01*
X18458Y81916D01*D02*
X24458Y81916D02*
X25542Y81916D01*
X25542Y86084D01*
X24458Y86084D01*
X24458Y81916D01*D02*
X18458Y56916D02*
X19542Y56916D01*
X19542Y61084D01*
X18458Y61084D01*
X18458Y56916D01*D02*
X24458Y56916D02*
X25542Y56916D01*
X25542Y61084D01*
X24458Y61084D01*
X24458Y56916D01*D02*
X24458Y71916D02*
X25542Y71916D01*
X25542Y76084D01*
X24458Y76084D01*
X24458Y71916D01*D02*
X18458Y71916D02*
X19542Y71916D01*
X19542Y76084D01*
X18458Y76084D01*
X18458Y71916D01*D02*
X77208Y111916D02*
X78292Y111916D01*
X78292Y116084D01*
X77208Y116084D01*
X77208Y111916D01*D02*
X83208Y111916D02*
X84292Y111916D01*
X84292Y116084D01*
X83208Y116084D01*
X83208Y111916D01*D02*
X83208Y101916D02*
X84292Y101916D01*
X84292Y106084D01*
X83208Y106084D01*
X83208Y101916D01*D02*
X77208Y101916D02*
X78292Y101916D01*
X78292Y106084D01*
X77208Y106084D01*
X77208Y101916D01*D02*
G54D18*
X47000Y47500D03*
X26000Y54500D03*
X92000Y63625D03*
X45858Y32500D03*
X74000Y83000D03*
X71000Y63500D03*
X29500Y47500D03*
X44500Y20000D03*
X61500Y47500D03*
X61500Y56000D03*
X67000Y47500D03*
X11000Y124000D03*
X85500Y70500D03*
G54D19*
X34750Y70500D03*
G54D20*
X34750Y80500D03*

M02*
