G04 Generated by Ultiboard 13.0 *
%FSLAX25Y25*%
%MOIN*%

%ADD10C,0.00001*%
%ADD11C,0.01000*%
%ADD12C,0.02000*%
%ADD13C,0.01200*%
%ADD14C,0.01400*%
%ADD15C,0.01620*%
%ADD16C,0.02500*%
%ADD17R,0.03700X0.04500*%
%ADD18R,0.06500X0.03200*%
%ADD19C,0.06334*%
%ADD20R,0.02083X0.02083*%
%ADD21C,0.03917*%
%ADD22R,0.03150X0.03150*%
%ADD23R,0.03937X0.03937*%
%ADD24R,0.03666X0.02666*%
%ADD25C,0.02334*%
%ADD26R,0.04749X0.13332*%
%ADD27R,0.04168X0.01501*%
%ADD28C,0.01666*%
%ADD29R,0.02251X0.04668*%
%ADD30R,0.04668X0.02251*%
%ADD31C,0.02000*%
%ADD32C,0.06000*%
%ADD33R,0.02334X0.02334*%
%ADD34C,0.04000*%
%ADD35R,0.05906X0.03937*%


G04 ColorRGB 00FF00 for the following layer *
%LNCopper Top*%
%LPD*%
G54D10*
G54D11*
X73781Y94197D02*
X73978Y94000D01*
X64750Y84750D02*
X73992Y93992D01*
X54750Y70500D02*
X56400Y72150D01*
X56400Y75812D01*
X56642Y75933D02*
X59317Y78608D01*
X59317Y87317D01*
X73948Y101948D01*
X49317Y85817D02*
X73881Y110381D01*
X44750Y80500D02*
X39317Y75067D01*
X30616Y75067D01*
X16000Y78500D02*
X26000Y78500D01*
X16000Y78500D02*
X11500Y74000D01*
X10625Y74000D01*
X10750Y64000D02*
X17250Y70500D01*
X25500Y70500D01*
X86201Y37108D02*
X86500Y37407D01*
X86500Y52975D01*
X25750Y52000D02*
X26000Y52250D01*
X26000Y54500D01*
X25750Y94197D02*
X25553Y94000D01*
X10625Y94000D01*
X25679Y102000D02*
X13000Y102000D01*
X11000Y104000D02*
X13000Y102000D01*
X25695Y110000D02*
X15000Y110000D01*
X11000Y114000D02*
X15000Y110000D01*
X74000Y86479D02*
X74000Y83000D01*
X25750Y86323D02*
X23427Y84000D01*
X11000Y84000D01*
X30567Y65933D02*
X26000Y70500D01*
X36201Y35858D02*
X36000Y36059D01*
X36000Y52350D01*
X36201Y52000D02*
X34500Y53701D01*
X34500Y65967D01*
X34500Y64000D02*
X36000Y65500D01*
X34000Y64567D02*
X34000Y65500D01*
X35000Y65500D02*
X34000Y65500D01*
X32500Y65933D02*
X34433Y64000D01*
X76475Y63500D02*
X71000Y63500D01*
X76475Y63500D02*
X86475Y53500D01*
X45625Y9000D02*
X40625Y14000D01*
X17000Y14000D01*
X16950Y14050D02*
X15029Y14050D01*
X14150Y14929D01*
X55625Y9000D02*
X61500Y14875D01*
X61500Y47500D01*
X65625Y9000D02*
X67000Y10375D01*
X67000Y47500D01*
X60183Y74683D02*
X64750Y79250D01*
X64750Y84750D01*
X44750Y73000D02*
X49317Y77567D01*
X44750Y73000D02*
X44750Y70500D01*
X49317Y77567D02*
X49317Y85817D01*
X54750Y80500D02*
X54750Y78750D01*
X61500Y62791D02*
X60183Y64108D01*
X60183Y74683D01*
X61500Y56000D02*
X61500Y62791D01*
X47142Y65933D02*
X30567Y65933D01*
X49817Y73817D02*
X49817Y68608D01*
X47142Y65933D01*
X54750Y78750D02*
X49817Y73817D01*
X12612Y31350D02*
X18650Y31350D01*
X20465Y29535D01*
X9650Y24612D02*
X9650Y28388D01*
X12612Y31350D01*
X11612Y22650D02*
X9650Y24612D01*
X14150Y20131D02*
X11631Y22650D01*
X14150Y14929D02*
X14150Y20131D01*
X30549Y75000D02*
X29500Y75000D01*
X26000Y78500D02*
X29500Y75000D01*
X73781Y86323D02*
X74104Y86000D01*
X92000Y84000D02*
X90000Y86000D01*
X74104Y86000D02*
X90000Y86000D01*
X73852Y102000D02*
X90000Y102000D01*
X92000Y104000D02*
X92250Y104000D01*
X92000Y114000D02*
X88000Y110000D01*
X73837Y110000D02*
X88000Y110000D01*
X73978Y94000D02*
X92000Y94000D01*
X90000Y102000D02*
X92000Y104000D01*
G36*
X52078Y76078D02*
X52078Y76078D01*
X52083Y80503D01*
X55993Y78140D01*
X52078Y76078D01*
D02*
G37*
X52083Y80503D01*
X55993Y78140D01*
X52078Y76078D01*
G36*
X41096Y76846D02*
X41096Y76846D01*
X42161Y81142D01*
X45392Y77911D01*
X41096Y76846D01*
D02*
G37*
X42161Y81142D01*
X45392Y77911D01*
X41096Y76846D01*
G36*
X46933Y75183D02*
X46933Y75183D01*
X47402Y70783D01*
X43261Y72713D01*
X46933Y75183D01*
D02*
G37*
X47402Y70783D01*
X43261Y72713D01*
X46933Y75183D01*
G36*
X61775Y76275D02*
X61775Y76275D01*
X62090Y80690D01*
X65825Y78059D01*
X61775Y76275D01*
D02*
G37*
X62090Y80690D01*
X65825Y78059D01*
X61775Y76275D01*
G36*
X64750Y84667D02*
X64750Y84667D01*
X66799Y82207D01*
X62701Y82207D01*
X64750Y84667D01*
D02*
G37*
X66799Y82207D01*
X62701Y82207D01*
X64750Y84667D01*
G36*
X56400Y75396D02*
X56400Y75396D01*
X57354Y71075D01*
X53025Y72534D01*
X56400Y75396D01*
D02*
G37*
X57354Y71075D01*
X53025Y72534D01*
X56400Y75396D01*
G36*
X87236Y86000D02*
X87236Y86000D01*
X91615Y86639D01*
X89847Y82427D01*
X87236Y86000D01*
D02*
G37*
X91615Y86639D01*
X89847Y82427D01*
X87236Y86000D01*
G36*
X86833Y94000D02*
X86833Y94000D01*
X90623Y96284D01*
X90623Y91716D01*
X86833Y94000D01*
D02*
G37*
X90623Y96284D01*
X90623Y91716D01*
X86833Y94000D01*
G36*
X87236Y102000D02*
X87236Y102000D01*
X89847Y105573D01*
X91615Y101361D01*
X87236Y102000D01*
D02*
G37*
X89847Y105573D01*
X91615Y101361D01*
X87236Y102000D01*
G36*
X88346Y110346D02*
X88346Y110346D01*
X89411Y114642D01*
X92642Y111411D01*
X88346Y110346D01*
D02*
G37*
X89411Y114642D01*
X92642Y111411D01*
X88346Y110346D01*
G36*
X41972Y12654D02*
X41972Y12654D01*
X46267Y11589D01*
X43037Y8358D01*
X41972Y12654D01*
D02*
G37*
X46267Y11589D01*
X43037Y8358D01*
X41972Y12654D01*
G36*
X59279Y12654D02*
X59279Y12654D01*
X58214Y8358D01*
X54984Y11589D01*
X59279Y12654D01*
D02*
G37*
X58214Y8358D01*
X54984Y11589D01*
X59279Y12654D01*
G36*
X67000Y13981D02*
X67000Y13981D01*
X68194Y9719D01*
X63790Y10935D01*
X67000Y13981D01*
D02*
G37*
X68194Y9719D01*
X63790Y10935D01*
X67000Y13981D01*
G36*
X67000Y44500D02*
X67000Y44500D01*
X66507Y47417D01*
X67493Y47417D01*
X67000Y44500D01*
D02*
G37*
X66507Y47417D01*
X67493Y47417D01*
X67000Y44500D01*
G36*
X61500Y59000D02*
X61500Y59000D01*
X61993Y56083D01*
X61007Y56083D01*
X61500Y59000D01*
D02*
G37*
X61993Y56083D01*
X61007Y56083D01*
X61500Y59000D01*
G36*
X61500Y44500D02*
X61500Y44500D01*
X61007Y47417D01*
X61993Y47417D01*
X61500Y44500D01*
D02*
G37*
X61007Y47417D01*
X61993Y47417D01*
X61500Y44500D01*
G36*
X74000Y63500D02*
X74000Y63500D01*
X71083Y63007D01*
X71083Y63993D01*
X74000Y63500D01*
D02*
G37*
X71083Y63007D01*
X71083Y63993D01*
X74000Y63500D01*
G36*
X74000Y86000D02*
X74000Y86000D01*
X74493Y83083D01*
X73507Y83083D01*
X74000Y86000D01*
D02*
G37*
X74493Y83083D01*
X73507Y83083D01*
X74000Y86000D01*
G36*
X26000Y52500D02*
X26000Y52500D01*
X25516Y54375D01*
X26484Y54375D01*
X26000Y52500D01*
D02*
G37*
X25516Y54375D01*
X26484Y54375D01*
X26000Y52500D01*
G36*
X14526Y110474D02*
X14526Y110474D01*
X10197Y111391D01*
X13315Y114730D01*
X14526Y110474D01*
D02*
G37*
X10197Y111391D01*
X13315Y114730D01*
X14526Y110474D01*
G36*
X15514Y102000D02*
X15514Y102000D01*
X11135Y101361D01*
X12903Y105573D01*
X15514Y102000D01*
D02*
G37*
X11135Y101361D01*
X12903Y105573D01*
X15514Y102000D01*
G36*
X15917Y94000D02*
X15917Y94000D01*
X12127Y91716D01*
X12127Y96284D01*
X15917Y94000D01*
D02*
G37*
X12127Y91716D01*
X12127Y96284D01*
X15917Y94000D01*
G36*
X15917Y84000D02*
X15917Y84000D01*
X12127Y81716D01*
X12127Y86284D01*
X15917Y84000D01*
D02*
G37*
X12127Y81716D01*
X12127Y86284D01*
X15917Y84000D01*
G36*
X14759Y77259D02*
X14759Y77259D01*
X13259Y73096D01*
X10377Y76641D01*
X14759Y77259D01*
D02*
G37*
X13259Y73096D01*
X10377Y76641D01*
X14759Y77259D01*
G36*
X14404Y67654D02*
X14404Y67654D01*
X13339Y63358D01*
X10108Y66589D01*
X14404Y67654D01*
D02*
G37*
X13339Y63358D01*
X10108Y66589D01*
X14404Y67654D01*
G54D12*
X42500Y35858D02*
X45858Y32500D01*
X42500Y52000D02*
X42500Y35858D01*
X92500Y29608D02*
X92500Y53250D01*
X49583Y52000D02*
X42500Y52000D01*
X92500Y29608D02*
X87933Y25042D01*
X52000Y54417D02*
X49583Y52000D01*
X87933Y25042D02*
X85500Y25042D01*
X25500Y46000D02*
X26000Y45500D01*
X27150Y47500D02*
X29500Y47500D01*
X47000Y47500D02*
X49500Y45000D01*
X51875Y45000D01*
X52000Y45250D02*
X59250Y52500D01*
X67500Y54500D02*
X65500Y52500D01*
X77000Y45250D02*
X65000Y57250D01*
X76875Y45500D02*
X78500Y43875D01*
X65000Y57250D02*
X65000Y70000D01*
X78500Y43875D02*
X78500Y25042D01*
X25750Y117819D02*
X25569Y118000D01*
X11000Y124000D02*
X17000Y118000D01*
X59250Y52500D02*
X65500Y52500D01*
X38583Y20000D02*
X49000Y20000D01*
X51000Y22000D02*
X49000Y20000D01*
X27500Y44425D02*
X26000Y45925D01*
X25700Y23700D02*
X27500Y25500D01*
X20500Y23700D02*
X25700Y23700D01*
X27500Y25500D02*
X27500Y44425D01*
X25750Y46100D02*
X27150Y47500D01*
X25569Y118000D02*
X17500Y118000D01*
X20500Y41000D02*
X21500Y42000D01*
X37000Y28000D02*
X32500Y32500D01*
X37000Y28000D02*
X38000Y28000D01*
X38250Y27667D02*
X38250Y28333D01*
X40000Y27667D02*
X41000Y26667D01*
X50500Y27500D02*
X38042Y27500D01*
X49000Y28000D02*
X51000Y28000D01*
X49333Y33417D02*
X49333Y28000D01*
X51000Y28000D01*
X50500Y27500D01*
X52000Y36083D02*
X49333Y33417D01*
X21500Y42000D02*
X21500Y55500D01*
X25000Y59000D01*
X29500Y59000D02*
X25000Y59000D01*
X92000Y53500D02*
X92000Y63625D01*
X92500Y53000D02*
X92000Y53500D01*
X73856Y70500D02*
X85500Y70500D01*
X92000Y64000D02*
X85500Y70500D01*
X64750Y70500D02*
X68750Y74500D01*
X69500Y74500D01*
G36*
X68404Y74154D02*
X68404Y74154D01*
X66784Y69752D01*
X64002Y72534D01*
X68404Y74154D01*
D02*
G37*
X66784Y69752D01*
X64002Y72534D01*
X68404Y74154D01*
G36*
X65000Y65339D02*
X65000Y65339D01*
X62829Y69497D01*
X66759Y69687D01*
X65000Y65339D01*
D02*
G37*
X62829Y69497D01*
X66759Y69687D01*
X65000Y65339D01*
G36*
X92000Y59000D02*
X92000Y59000D01*
X90167Y63200D01*
X93833Y63200D01*
X92000Y59000D01*
D02*
G37*
X90167Y63200D01*
X93833Y63200D01*
X92000Y59000D01*
G36*
X88464Y67536D02*
X88464Y67536D01*
X92730Y65862D01*
X90138Y63270D01*
X88464Y67536D01*
D02*
G37*
X92730Y65862D01*
X90138Y63270D01*
X88464Y67536D01*
G36*
X14408Y120592D02*
X14408Y120592D01*
X10086Y122114D01*
X12585Y124796D01*
X14408Y120592D01*
D02*
G37*
X10086Y122114D01*
X12585Y124796D01*
X14408Y120592D01*
G54D13*
X29500Y59000D02*
X31158Y57342D01*
G54D14*
X31158Y57342D02*
X32500Y56000D01*
X32500Y32500D02*
X32500Y56000D01*
G54D15*
X91500Y74500D02*
X92000Y74000D01*
X69500Y74500D02*
X91500Y74500D01*
G36*
X86857Y74500D02*
X86857Y74500D01*
X91133Y76192D01*
X90727Y72016D01*
X86857Y74500D01*
D02*
G37*
X91133Y76192D01*
X90727Y72016D01*
X86857Y74500D01*
G54D16*
X92000Y124000D02*
X86500Y118500D01*
X73781Y117819D02*
X74463Y118500D01*
X74463Y118500D02*
X86500Y118500D01*
G36*
X88346Y120346D02*
X88346Y120346D01*
X90238Y124756D01*
X92756Y122238D01*
X88346Y120346D01*
D02*
G37*
X90238Y124756D01*
X92756Y122238D01*
X88346Y120346D01*
G54D17*
X8800Y17800D03*
X17500Y17800D03*
X8800Y46500D03*
X17500Y46500D03*
G54D18*
X20500Y23700D03*
X20500Y29600D03*
X20500Y41000D03*
G54D19*
X45625Y9000D03*
X55625Y9000D03*
X65625Y9000D03*
X35625Y9000D03*
X75625Y9000D03*
X10750Y64000D03*
X10750Y74000D03*
X10750Y84000D03*
X10750Y94000D03*
X10750Y104000D03*
X10750Y114000D03*
X92000Y114000D03*
X92000Y74000D03*
X92000Y104000D03*
X92000Y94000D03*
X92000Y84000D03*
X92000Y124000D03*
X54750Y70500D03*
X64750Y80500D03*
X44750Y70500D03*
X44750Y80500D03*
X54750Y80500D03*
X64750Y70500D03*
G54D20*
X25625Y9000D03*
X10750Y124000D03*
X92000Y64000D03*
G54D21*
X24584Y7959D02*
X26666Y7959D01*
X26666Y10041D01*
X24584Y10041D01*
X24584Y7959D01*D02*
X9709Y122959D02*
X11791Y122959D01*
X11791Y125041D01*
X9709Y125041D01*
X9709Y122959D01*D02*
X90959Y62959D02*
X93041Y62959D01*
X93041Y65041D01*
X90959Y65041D01*
X90959Y62959D01*D02*
G54D22*
X25750Y46100D03*
X25750Y52000D03*
G54D23*
X36201Y35858D03*
X42500Y35858D03*
X36201Y52000D03*
X42500Y52000D03*
X92500Y37108D03*
X86201Y37108D03*
X92500Y53250D03*
X86201Y53250D03*
G54D24*
X52000Y36083D03*
X52000Y45250D03*
X52000Y54417D03*
G54D25*
X50167Y34750D02*
X53833Y34750D01*
X53833Y37416D01*
X50167Y37416D01*
X50167Y34750D01*D02*
X50167Y43917D02*
X53833Y43917D01*
X53833Y46583D01*
X50167Y46583D01*
X50167Y43917D01*D02*
X74626Y38584D02*
X79374Y38584D01*
X79374Y51916D01*
X74626Y51916D01*
X74626Y38584D01*D02*
X50167Y53084D02*
X53833Y53084D01*
X53833Y55750D01*
X50167Y55750D01*
X50167Y53084D01*D02*
G54D26*
X77000Y45250D03*
G54D27*
X51000Y28000D03*
X51000Y22000D03*
G54D28*
X48916Y27250D02*
X53084Y27250D01*
X53084Y28750D01*
X48916Y28750D01*
X48916Y27250D01*D02*
X48916Y21250D02*
X53084Y21250D01*
X53084Y22750D01*
X48916Y22750D01*
X48916Y21250D01*D02*
X77208Y22916D02*
X79458Y22916D01*
X79458Y27584D01*
X77208Y27584D01*
X77208Y22916D01*D02*
X84542Y22916D02*
X86792Y22916D01*
X86792Y27584D01*
X84542Y27584D01*
X84542Y22916D01*D02*
X35916Y19208D02*
X40584Y19208D01*
X40584Y21458D01*
X35916Y21458D01*
X35916Y19208D01*D02*
X35916Y26542D02*
X40584Y26542D01*
X40584Y28792D01*
X35916Y28792D01*
X35916Y26542D01*D02*
G54D29*
X78333Y25250D03*
X85667Y25250D03*
G54D30*
X38250Y20333D03*
X38250Y27667D03*
G54D31*
X47000Y47500D03*
X26000Y54500D03*
X92000Y63625D03*
X45858Y32500D03*
X74000Y83000D03*
X71000Y63500D03*
X29500Y47500D03*
X44500Y20000D03*
X61500Y47500D03*
X61500Y56000D03*
X67000Y47500D03*
X11000Y124000D03*
X85500Y70500D03*
G54D32*
X34750Y70500D03*
G54D33*
X34750Y80500D03*
G54D34*
X33583Y79333D02*
X35917Y79333D01*
X35917Y81667D01*
X33583Y81667D01*
X33583Y79333D01*D02*
G54D35*
X25750Y70575D03*
X73781Y70575D03*
X25750Y78449D03*
X73781Y78449D03*
X25750Y86323D03*
X73781Y86323D03*
X25750Y94197D03*
X73781Y94197D03*
X25750Y102071D03*
X73781Y102071D03*
X25750Y109945D03*
X73781Y109945D03*
X25750Y117819D03*
X73781Y117819D03*

M02*
