G04 Generated by Ultiboard 13.0 *
%FSLAX25Y25*%
%MOIN*%

%ADD10C,0.00001*%
%ADD11R,0.03700X0.04500*%
%ADD12C,0.00400*%
%ADD13R,0.06500X0.03200*%
%ADD14C,0.06734*%
%ADD15R,0.02083X0.02083*%
%ADD16C,0.04317*%
%ADD17R,0.03150X0.03150*%
%ADD18R,0.03937X0.03937*%
%ADD19R,0.03666X0.02666*%
%ADD20C,0.02734*%
%ADD21R,0.04749X0.13332*%
%ADD22R,0.04168X0.01501*%
%ADD23C,0.02066*%
%ADD24R,0.02251X0.04668*%
%ADD25R,0.04668X0.02251*%
%ADD26C,0.06400*%
%ADD27R,0.02334X0.02334*%
%ADD28C,0.04400*%
%ADD29R,0.05906X0.03937*%


G04 ColorRGB FF00CC for the following layer *
%LNSolder Mask Top*%
%LPD*%
G54D10*
G54D11*
X8800Y17800D03*
X17500Y17800D03*
X8800Y46500D03*
X17500Y46500D03*
G54D12*
X6950Y15550D02*
X10650Y15550D01*
X10650Y20050D01*
X6950Y20050D01*
X6950Y15550D01*D02*
X15650Y15550D02*
X19350Y15550D01*
X19350Y20050D01*
X15650Y20050D01*
X15650Y15550D01*D02*
X17250Y22100D02*
X23750Y22100D01*
X23750Y25300D01*
X17250Y25300D01*
X17250Y22100D01*D02*
X17250Y28000D02*
X23750Y28000D01*
X23750Y31200D01*
X17250Y31200D01*
X17250Y28000D01*D02*
X17250Y39400D02*
X23750Y39400D01*
X23750Y42600D01*
X17250Y42600D01*
X17250Y39400D01*D02*
X6950Y44250D02*
X10650Y44250D01*
X10650Y48750D01*
X6950Y48750D01*
X6950Y44250D01*D02*
X15650Y44250D02*
X19350Y44250D01*
X19350Y48750D01*
X15650Y48750D01*
X15650Y44250D01*D02*
X24175Y44525D02*
X27325Y44525D01*
X27325Y47675D01*
X24175Y47675D01*
X24175Y44525D01*D02*
X24175Y50425D02*
X27325Y50425D01*
X27325Y53575D01*
X24175Y53575D01*
X24175Y50425D01*D02*
X34233Y33890D02*
X38169Y33890D01*
X38169Y37826D01*
X34233Y37826D01*
X34233Y33890D01*D02*
X40532Y33890D02*
X44468Y33890D01*
X44468Y37826D01*
X40532Y37826D01*
X40532Y33890D01*D02*
X34233Y50032D02*
X38169Y50032D01*
X38169Y53968D01*
X34233Y53968D01*
X34233Y50032D01*D02*
X40532Y50032D02*
X44468Y50032D01*
X44468Y53968D01*
X40532Y53968D01*
X40532Y50032D01*D02*
X90532Y35140D02*
X94468Y35140D01*
X94468Y39076D01*
X90532Y39076D01*
X90532Y35140D01*D02*
X84233Y35140D02*
X88169Y35140D01*
X88169Y39076D01*
X84233Y39076D01*
X84233Y35140D01*D02*
X90532Y51282D02*
X94468Y51282D01*
X94468Y55218D01*
X90532Y55218D01*
X90532Y51282D01*D02*
X84233Y51282D02*
X88169Y51282D01*
X88169Y55218D01*
X84233Y55218D01*
X84233Y51282D01*D02*
X22797Y68607D02*
X28703Y68607D01*
X28703Y72543D01*
X22797Y72543D01*
X22797Y68607D01*D02*
X70828Y68607D02*
X76734Y68607D01*
X76734Y72543D01*
X70828Y72543D01*
X70828Y68607D01*D02*
X22797Y76481D02*
X28703Y76481D01*
X28703Y80417D01*
X22797Y80417D01*
X22797Y76481D01*D02*
X70828Y76481D02*
X76734Y76481D01*
X76734Y80417D01*
X70828Y80417D01*
X70828Y76481D01*D02*
X22797Y84355D02*
X28703Y84355D01*
X28703Y88291D01*
X22797Y88291D01*
X22797Y84355D01*D02*
X70828Y84355D02*
X76734Y84355D01*
X76734Y88291D01*
X70828Y88291D01*
X70828Y84355D01*D02*
X22797Y92229D02*
X28703Y92229D01*
X28703Y96165D01*
X22797Y96165D01*
X22797Y92229D01*D02*
X70828Y92229D02*
X76734Y92229D01*
X76734Y96165D01*
X70828Y96165D01*
X70828Y92229D01*D02*
X22797Y100103D02*
X28703Y100103D01*
X28703Y104039D01*
X22797Y104039D01*
X22797Y100103D01*D02*
X70828Y100103D02*
X76734Y100103D01*
X76734Y104039D01*
X70828Y104039D01*
X70828Y100103D01*D02*
X22797Y107977D02*
X28703Y107977D01*
X28703Y111913D01*
X22797Y111913D01*
X22797Y107977D01*D02*
X70828Y107977D02*
X76734Y107977D01*
X76734Y111913D01*
X70828Y111913D01*
X70828Y107977D01*D02*
X22797Y115851D02*
X28703Y115851D01*
X28703Y119787D01*
X22797Y119787D01*
X22797Y115851D01*D02*
X70828Y115851D02*
X76734Y115851D01*
X76734Y119787D01*
X70828Y119787D01*
X70828Y115851D01*D02*
G54D13*
X20500Y23700D03*
X20500Y29600D03*
X20500Y41000D03*
G54D14*
X45625Y9000D03*
X55625Y9000D03*
X65625Y9000D03*
X35625Y9000D03*
X75625Y9000D03*
X10750Y64000D03*
X10750Y74000D03*
X10750Y84000D03*
X10750Y94000D03*
X10750Y104000D03*
X10750Y114000D03*
X92000Y114000D03*
X92000Y74000D03*
X92000Y104000D03*
X92000Y94000D03*
X92000Y84000D03*
X92000Y124000D03*
X54750Y70500D03*
X64750Y80500D03*
X44750Y70500D03*
X44750Y80500D03*
X54750Y80500D03*
X64750Y70500D03*
G54D15*
X25625Y9000D03*
X10750Y124000D03*
X92000Y64000D03*
G54D16*
X24584Y7959D02*
X26666Y7959D01*
X26666Y10041D01*
X24584Y10041D01*
X24584Y7959D01*D02*
X9709Y122959D02*
X11791Y122959D01*
X11791Y125041D01*
X9709Y125041D01*
X9709Y122959D01*D02*
X90959Y62959D02*
X93041Y62959D01*
X93041Y65041D01*
X90959Y65041D01*
X90959Y62959D01*D02*
G54D17*
X25750Y46100D03*
X25750Y52000D03*
G54D18*
X36201Y35858D03*
X42500Y35858D03*
X36201Y52000D03*
X42500Y52000D03*
X92500Y37108D03*
X86201Y37108D03*
X92500Y53250D03*
X86201Y53250D03*
G54D19*
X52000Y36083D03*
X52000Y45250D03*
X52000Y54417D03*
G54D20*
X50167Y34750D02*
X53833Y34750D01*
X53833Y37416D01*
X50167Y37416D01*
X50167Y34750D01*D02*
X50167Y43917D02*
X53833Y43917D01*
X53833Y46583D01*
X50167Y46583D01*
X50167Y43917D01*D02*
X74626Y38584D02*
X79374Y38584D01*
X79374Y51916D01*
X74626Y51916D01*
X74626Y38584D01*D02*
X50167Y53084D02*
X53833Y53084D01*
X53833Y55750D01*
X50167Y55750D01*
X50167Y53084D01*D02*
G54D21*
X77000Y45250D03*
G54D22*
X51000Y28000D03*
X51000Y22000D03*
G54D23*
X48916Y27250D02*
X53084Y27250D01*
X53084Y28750D01*
X48916Y28750D01*
X48916Y27250D01*D02*
X48916Y21250D02*
X53084Y21250D01*
X53084Y22750D01*
X48916Y22750D01*
X48916Y21250D01*D02*
X77208Y22916D02*
X79458Y22916D01*
X79458Y27584D01*
X77208Y27584D01*
X77208Y22916D01*D02*
X84542Y22916D02*
X86792Y22916D01*
X86792Y27584D01*
X84542Y27584D01*
X84542Y22916D01*D02*
X35916Y19208D02*
X40584Y19208D01*
X40584Y21458D01*
X35916Y21458D01*
X35916Y19208D01*D02*
X35916Y26542D02*
X40584Y26542D01*
X40584Y28792D01*
X35916Y28792D01*
X35916Y26542D01*D02*
G54D24*
X78333Y25250D03*
X85667Y25250D03*
G54D25*
X38250Y20333D03*
X38250Y27667D03*
G54D26*
X34750Y70500D03*
G54D27*
X34750Y80500D03*
G54D28*
X33583Y79333D02*
X35917Y79333D01*
X35917Y81667D01*
X33583Y81667D01*
X33583Y79333D01*D02*
G54D29*
X25750Y70575D03*
X73781Y70575D03*
X25750Y78449D03*
X73781Y78449D03*
X25750Y86323D03*
X73781Y86323D03*
X25750Y94197D03*
X73781Y94197D03*
X25750Y102071D03*
X73781Y102071D03*
X25750Y109945D03*
X73781Y109945D03*
X25750Y117819D03*
X73781Y117819D03*

M02*
